<mxfile host="app.diagrams.net" modified="2024-05-09T00:36:53.330Z" agent="Mozilla/5.0 (Macintosh; Intel Mac OS X 10_15_7) AppleWebKit/605.1.15 (KHTML, like Gecko) Version/17.2.1 Safari/605.1.15" etag="N_lt3l7qimFTUEY5kpGw" version="24.3.1" type="device">
  <diagram name="Page-1" id="ovTE-kA_0FhMaoyyQNfJ">
    <mxGraphModel dx="1930" dy="1863" grid="1" gridSize="10" guides="1" tooltips="1" connect="1" arrows="1" fold="1" page="1" pageScale="1" pageWidth="850" pageHeight="1100" math="0" shadow="0">
      <root>
        <mxCell id="0" />
        <mxCell id="1" parent="0" />
        <mxCell id="bxZLJlHsnHyx1dcmcsCU-1" value="" style="rounded=0;whiteSpace=wrap;html=1;" parent="1" vertex="1">
          <mxGeometry x="-558" y="-696" width="120" height="60" as="geometry" />
        </mxCell>
        <mxCell id="bxZLJlHsnHyx1dcmcsCU-2" value="" style="triangle;whiteSpace=wrap;html=1;" parent="1" vertex="1">
          <mxGeometry x="-558" y="-660" width="16" height="24" as="geometry" />
        </mxCell>
        <mxCell id="bxZLJlHsnHyx1dcmcsCU-3" value="" style="rounded=0;whiteSpace=wrap;html=1;flipV=1;flipH=0;" parent="1" vertex="1">
          <mxGeometry x="-670" y="-276" width="120" height="60" as="geometry" />
        </mxCell>
        <mxCell id="bxZLJlHsnHyx1dcmcsCU-4" value="" style="triangle;whiteSpace=wrap;html=1;flipV=1;flipH=0;" parent="1" vertex="1">
          <mxGeometry x="-670" y="-240" width="16" height="24" as="geometry" />
        </mxCell>
        <mxCell id="bxZLJlHsnHyx1dcmcsCU-5" value="&lt;span style=&quot;font-size: 14px;&quot;&gt;2-bit Binary Counter&lt;/span&gt;" style="rounded=0;whiteSpace=wrap;html=1;" parent="1" vertex="1">
          <mxGeometry x="-670" y="-409" width="120" height="60" as="geometry" />
        </mxCell>
        <mxCell id="bxZLJlHsnHyx1dcmcsCU-6" value="" style="rounded=0;whiteSpace=wrap;html=1;direction=west;" parent="1" vertex="1">
          <mxGeometry x="-339" y="-389" width="120" height="60" as="geometry" />
        </mxCell>
        <mxCell id="bxZLJlHsnHyx1dcmcsCU-7" value="" style="rounded=0;whiteSpace=wrap;html=1;" parent="1" vertex="1">
          <mxGeometry x="-339" y="-274.5" width="120" height="60" as="geometry" />
        </mxCell>
        <mxCell id="bxZLJlHsnHyx1dcmcsCU-8" value="" style="shape=trapezoid;perimeter=trapezoidPerimeter;whiteSpace=wrap;html=1;fixedSize=1;direction=west;" parent="1" vertex="1">
          <mxGeometry x="-395" y="-513.5" width="238" height="60" as="geometry" />
        </mxCell>
        <mxCell id="bxZLJlHsnHyx1dcmcsCU-9" value="" style="rounded=0;whiteSpace=wrap;html=1;" parent="1" vertex="1">
          <mxGeometry x="-369" y="-714" width="199" height="64" as="geometry" />
        </mxCell>
        <mxCell id="bxZLJlHsnHyx1dcmcsCU-10" value="" style="triangle;whiteSpace=wrap;html=1;" parent="1" vertex="1">
          <mxGeometry x="-369" y="-678" width="16" height="24" as="geometry" />
        </mxCell>
        <mxCell id="bxZLJlHsnHyx1dcmcsCU-11" value="Clock Divider" style="text;strokeColor=none;fillColor=none;html=1;align=center;verticalAlign=middle;whiteSpace=wrap;rounded=0;fontSize=14;" parent="1" vertex="1">
          <mxGeometry x="-525.5" y="-677.5" width="55" height="23" as="geometry" />
        </mxCell>
        <mxCell id="bxZLJlHsnHyx1dcmcsCU-12" value="2*4 Binary Decoder" style="text;strokeColor=none;fillColor=none;html=1;align=center;verticalAlign=middle;whiteSpace=wrap;rounded=0;fontSize=14;" parent="1" vertex="1">
          <mxGeometry x="-640" y="-261" width="60" height="30" as="geometry" />
        </mxCell>
        <mxCell id="bxZLJlHsnHyx1dcmcsCU-14" value="Binary to 7 seg display" style="text;strokeColor=none;fillColor=none;html=1;align=center;verticalAlign=middle;whiteSpace=wrap;rounded=0;fontSize=14;direction=west;" parent="1" vertex="1">
          <mxGeometry x="-308" y="-376" width="60" height="30" as="geometry" />
        </mxCell>
        <mxCell id="bxZLJlHsnHyx1dcmcsCU-15" value="4-Digit 7-Segment Display" style="text;strokeColor=none;fillColor=none;html=1;align=center;verticalAlign=middle;whiteSpace=wrap;rounded=0;fontSize=14;" parent="1" vertex="1">
          <mxGeometry x="-307" y="-259.5" width="60" height="30" as="geometry" />
        </mxCell>
        <mxCell id="bxZLJlHsnHyx1dcmcsCU-16" value="4*1 MUX" style="text;strokeColor=none;fillColor=none;html=1;align=center;verticalAlign=middle;whiteSpace=wrap;rounded=0;fontSize=14;direction=west;" parent="1" vertex="1">
          <mxGeometry x="-342" y="-508" width="60" height="30" as="geometry" />
        </mxCell>
        <mxCell id="bxZLJlHsnHyx1dcmcsCU-17" value="Hours &amp;amp; Minutes Counter" style="text;strokeColor=none;fillColor=none;html=1;align=center;verticalAlign=middle;whiteSpace=wrap;rounded=0;fontSize=14;" parent="1" vertex="1">
          <mxGeometry x="-304" y="-700.75" width="60" height="30" as="geometry" />
        </mxCell>
        <mxCell id="bxZLJlHsnHyx1dcmcsCU-18" value="" style="endArrow=classic;html=1;rounded=0;fontSize=12;startSize=8;endSize=8;curved=1;entryX=0;entryY=0.5;entryDx=0;entryDy=0;" parent="1" target="bxZLJlHsnHyx1dcmcsCU-2" edge="1">
          <mxGeometry width="50" height="50" relative="1" as="geometry">
            <mxPoint x="-730" y="-648" as="sourcePoint" />
            <mxPoint x="-555" y="-654.5" as="targetPoint" />
          </mxGeometry>
        </mxCell>
        <mxCell id="bxZLJlHsnHyx1dcmcsCU-22" value="" style="endArrow=classic;html=1;rounded=0;fontSize=12;startSize=8;endSize=8;curved=1;entryX=0.558;entryY=0.005;entryDx=0;entryDy=0;entryPerimeter=0;" parent="1" target="bxZLJlHsnHyx1dcmcsCU-7" edge="1">
          <mxGeometry width="50" height="50" relative="1" as="geometry">
            <mxPoint x="-271" y="-328" as="sourcePoint" />
            <mxPoint x="-271" y="-256" as="targetPoint" />
          </mxGeometry>
        </mxCell>
        <mxCell id="bxZLJlHsnHyx1dcmcsCU-26" value="" style="endArrow=none;html=1;rounded=0;fontSize=12;startSize=8;endSize=8;curved=1;" parent="1" edge="1">
          <mxGeometry width="50" height="50" relative="1" as="geometry">
            <mxPoint x="-285" y="-277" as="sourcePoint" />
            <mxPoint x="-257" y="-302" as="targetPoint" />
          </mxGeometry>
        </mxCell>
        <mxCell id="bxZLJlHsnHyx1dcmcsCU-27" value="7" style="text;strokeColor=none;fillColor=none;html=1;align=center;verticalAlign=middle;whiteSpace=wrap;rounded=0;fontSize=12;" parent="1" vertex="1">
          <mxGeometry x="-312" y="-311" width="60" height="30" as="geometry" />
        </mxCell>
        <mxCell id="bxZLJlHsnHyx1dcmcsCU-33" value="100MHz&lt;div style=&quot;font-size: 12px;&quot;&gt;&lt;br style=&quot;font-size: 12px;&quot;&gt;&lt;/div&gt;" style="text;strokeColor=none;fillColor=none;html=1;align=center;verticalAlign=middle;whiteSpace=wrap;rounded=0;fontSize=12;" parent="1" vertex="1">
          <mxGeometry x="-718" y="-663" width="60" height="30" as="geometry" />
        </mxCell>
        <mxCell id="bxZLJlHsnHyx1dcmcsCU-37" value="" style="rounded=0;whiteSpace=wrap;html=1;" parent="1" vertex="1">
          <mxGeometry x="78" y="-655" width="120" height="60" as="geometry" />
        </mxCell>
        <mxCell id="bxZLJlHsnHyx1dcmcsCU-38" value="Alarm Hour Reg" style="text;strokeColor=none;fillColor=none;html=1;align=center;verticalAlign=middle;whiteSpace=wrap;rounded=0;fontSize=12;" parent="1" vertex="1">
          <mxGeometry x="105" y="-640" width="60" height="30" as="geometry" />
        </mxCell>
        <mxCell id="bxZLJlHsnHyx1dcmcsCU-39" value="En" style="text;strokeColor=none;fillColor=none;html=1;align=center;verticalAlign=middle;whiteSpace=wrap;rounded=0;fontSize=14;" parent="1" vertex="1">
          <mxGeometry x="173" y="-655" width="25" height="15" as="geometry" />
        </mxCell>
        <mxCell id="bxZLJlHsnHyx1dcmcsCU-40" value="Load" style="text;strokeColor=none;fillColor=none;html=1;align=center;verticalAlign=middle;whiteSpace=wrap;rounded=0;fontSize=14;" parent="1" vertex="1">
          <mxGeometry x="165" y="-615" width="35" height="22" as="geometry" />
        </mxCell>
        <mxCell id="bxZLJlHsnHyx1dcmcsCU-41" value="" style="rounded=0;whiteSpace=wrap;html=1;" parent="1" vertex="1">
          <mxGeometry x="365" y="-655" width="120" height="60" as="geometry" />
        </mxCell>
        <mxCell id="bxZLJlHsnHyx1dcmcsCU-42" value="Alarm Minutes Reg" style="text;strokeColor=none;fillColor=none;html=1;align=center;verticalAlign=middle;whiteSpace=wrap;rounded=0;fontSize=12;" parent="1" vertex="1">
          <mxGeometry x="392" y="-640" width="60" height="30" as="geometry" />
        </mxCell>
        <mxCell id="bxZLJlHsnHyx1dcmcsCU-43" value="En" style="text;strokeColor=none;fillColor=none;html=1;align=center;verticalAlign=middle;whiteSpace=wrap;rounded=0;fontSize=14;" parent="1" vertex="1">
          <mxGeometry x="460" y="-655" width="25" height="15" as="geometry" />
        </mxCell>
        <mxCell id="bxZLJlHsnHyx1dcmcsCU-44" value="Load" style="text;strokeColor=none;fillColor=none;html=1;align=center;verticalAlign=middle;whiteSpace=wrap;rounded=0;fontSize=14;" parent="1" vertex="1">
          <mxGeometry x="452" y="-615" width="35" height="22" as="geometry" />
        </mxCell>
        <mxCell id="bxZLJlHsnHyx1dcmcsCU-45" value="" style="rounded=0;whiteSpace=wrap;html=1;" parent="1" vertex="1">
          <mxGeometry x="669" y="-651" width="120" height="60" as="geometry" />
        </mxCell>
        <mxCell id="bxZLJlHsnHyx1dcmcsCU-46" value="Hour Setup Reg" style="text;strokeColor=none;fillColor=none;html=1;align=center;verticalAlign=middle;whiteSpace=wrap;rounded=0;fontSize=12;" parent="1" vertex="1">
          <mxGeometry x="696" y="-636" width="60" height="30" as="geometry" />
        </mxCell>
        <mxCell id="bxZLJlHsnHyx1dcmcsCU-47" value="En" style="text;strokeColor=none;fillColor=none;html=1;align=center;verticalAlign=middle;whiteSpace=wrap;rounded=0;fontSize=14;" parent="1" vertex="1">
          <mxGeometry x="764" y="-651" width="25" height="15" as="geometry" />
        </mxCell>
        <mxCell id="bxZLJlHsnHyx1dcmcsCU-48" value="Load" style="text;strokeColor=none;fillColor=none;html=1;align=center;verticalAlign=middle;whiteSpace=wrap;rounded=0;fontSize=14;" parent="1" vertex="1">
          <mxGeometry x="756" y="-611" width="35" height="22" as="geometry" />
        </mxCell>
        <mxCell id="bxZLJlHsnHyx1dcmcsCU-49" value="" style="rounded=0;whiteSpace=wrap;html=1;" parent="1" vertex="1">
          <mxGeometry x="1005" y="-648" width="120" height="60" as="geometry" />
        </mxCell>
        <mxCell id="bxZLJlHsnHyx1dcmcsCU-50" value="Minutes Setup Reg" style="text;strokeColor=none;fillColor=none;html=1;align=center;verticalAlign=middle;whiteSpace=wrap;rounded=0;fontSize=12;" parent="1" vertex="1">
          <mxGeometry x="1032" y="-633" width="60" height="30" as="geometry" />
        </mxCell>
        <mxCell id="bxZLJlHsnHyx1dcmcsCU-51" value="En" style="text;strokeColor=none;fillColor=none;html=1;align=center;verticalAlign=middle;whiteSpace=wrap;rounded=0;fontSize=14;" parent="1" vertex="1">
          <mxGeometry x="1100" y="-648" width="25" height="15" as="geometry" />
        </mxCell>
        <mxCell id="bxZLJlHsnHyx1dcmcsCU-52" value="Load" style="text;strokeColor=none;fillColor=none;html=1;align=center;verticalAlign=middle;whiteSpace=wrap;rounded=0;fontSize=14;" parent="1" vertex="1">
          <mxGeometry x="1092" y="-608" width="35" height="22" as="geometry" />
        </mxCell>
        <mxCell id="bxZLJlHsnHyx1dcmcsCU-53" value="" style="endArrow=classic;html=1;rounded=0;fontSize=12;startSize=8;endSize=8;curved=1;entryX=0.75;entryY=0;entryDx=0;entryDy=0;" parent="1" target="bxZLJlHsnHyx1dcmcsCU-39" edge="1">
          <mxGeometry width="50" height="50" relative="1" as="geometry">
            <mxPoint x="192" y="-687" as="sourcePoint" />
            <mxPoint x="194" y="-681" as="targetPoint" />
          </mxGeometry>
        </mxCell>
        <mxCell id="bxZLJlHsnHyx1dcmcsCU-54" value="LD14" style="text;strokeColor=none;fillColor=none;html=1;align=center;verticalAlign=middle;whiteSpace=wrap;rounded=0;fontSize=12;" parent="1" vertex="1">
          <mxGeometry x="161" y="-709" width="60" height="30" as="geometry" />
        </mxCell>
        <mxCell id="bxZLJlHsnHyx1dcmcsCU-55" style="edgeStyle=none;curved=1;rounded=0;orthogonalLoop=1;jettySize=auto;html=1;exitX=0;exitY=0;exitDx=0;exitDy=0;fontSize=12;startSize=8;endSize=8;" parent="1" source="bxZLJlHsnHyx1dcmcsCU-54" target="bxZLJlHsnHyx1dcmcsCU-54" edge="1">
          <mxGeometry relative="1" as="geometry" />
        </mxCell>
        <mxCell id="bxZLJlHsnHyx1dcmcsCU-56" value="" style="endArrow=classic;html=1;rounded=0;fontSize=12;startSize=8;endSize=8;curved=1;entryX=0.5;entryY=0;entryDx=0;entryDy=0;" parent="1" target="bxZLJlHsnHyx1dcmcsCU-43" edge="1">
          <mxGeometry width="50" height="50" relative="1" as="geometry">
            <mxPoint x="473" y="-685" as="sourcePoint" />
            <mxPoint x="474" y="-735" as="targetPoint" />
          </mxGeometry>
        </mxCell>
        <mxCell id="bxZLJlHsnHyx1dcmcsCU-57" value="&lt;font style=&quot;font-size: 12px;&quot;&gt;LD15&lt;/font&gt;" style="text;strokeColor=none;fillColor=none;html=1;align=center;verticalAlign=middle;whiteSpace=wrap;rounded=0;fontSize=16;" parent="1" vertex="1">
          <mxGeometry x="442.5" y="-709" width="60" height="30" as="geometry" />
        </mxCell>
        <mxCell id="bxZLJlHsnHyx1dcmcsCU-58" value="" style="endArrow=classic;html=1;rounded=0;fontSize=12;startSize=8;endSize=8;curved=1;entryX=0.5;entryY=0;entryDx=0;entryDy=0;" parent="1" target="bxZLJlHsnHyx1dcmcsCU-47" edge="1">
          <mxGeometry width="50" height="50" relative="1" as="geometry">
            <mxPoint x="777" y="-684" as="sourcePoint" />
            <mxPoint x="778" y="-727" as="targetPoint" />
          </mxGeometry>
        </mxCell>
        <mxCell id="bxZLJlHsnHyx1dcmcsCU-59" value="LD12" style="text;strokeColor=none;fillColor=none;html=1;align=center;verticalAlign=middle;whiteSpace=wrap;rounded=0;fontSize=12;" parent="1" vertex="1">
          <mxGeometry x="746.5" y="-707" width="60" height="30" as="geometry" />
        </mxCell>
        <mxCell id="bxZLJlHsnHyx1dcmcsCU-60" value="LD13" style="text;strokeColor=none;fillColor=none;html=1;align=center;verticalAlign=middle;whiteSpace=wrap;rounded=0;fontSize=12;" parent="1" vertex="1">
          <mxGeometry x="1089" y="-703" width="60" height="30" as="geometry" />
        </mxCell>
        <mxCell id="bxZLJlHsnHyx1dcmcsCU-61" value="" style="endArrow=classic;html=1;rounded=0;fontSize=12;startSize=8;endSize=8;curved=1;entryX=0.75;entryY=0;entryDx=0;entryDy=0;" parent="1" target="bxZLJlHsnHyx1dcmcsCU-51" edge="1">
          <mxGeometry width="50" height="50" relative="1" as="geometry">
            <mxPoint x="1119" y="-678" as="sourcePoint" />
            <mxPoint x="1121" y="-728" as="targetPoint" />
          </mxGeometry>
        </mxCell>
        <mxCell id="bxZLJlHsnHyx1dcmcsCU-62" value="" style="shape=trapezoid;perimeter=trapezoidPerimeter;whiteSpace=wrap;html=1;fixedSize=1;direction=west;" parent="1" vertex="1">
          <mxGeometry x="217" y="-467" width="120" height="60" as="geometry" />
        </mxCell>
        <mxCell id="bxZLJlHsnHyx1dcmcsCU-63" value="" style="shape=trapezoid;perimeter=trapezoidPerimeter;whiteSpace=wrap;html=1;fixedSize=1;direction=west;" parent="1" vertex="1">
          <mxGeometry x="705" y="-274" width="120" height="60" as="geometry" />
        </mxCell>
        <mxCell id="bxZLJlHsnHyx1dcmcsCU-64" value="" style="endArrow=none;html=1;rounded=0;fontSize=12;startSize=8;endSize=8;curved=1;" parent="1" edge="1">
          <mxGeometry width="50" height="50" relative="1" as="geometry">
            <mxPoint x="136" y="-516" as="sourcePoint" />
            <mxPoint x="139" y="-595" as="targetPoint" />
          </mxGeometry>
        </mxCell>
        <mxCell id="bxZLJlHsnHyx1dcmcsCU-65" value="" style="endArrow=none;html=1;rounded=0;fontSize=12;startSize=8;endSize=8;curved=1;" parent="1" edge="1">
          <mxGeometry width="50" height="50" relative="1" as="geometry">
            <mxPoint x="137" y="-515" as="sourcePoint" />
            <mxPoint x="259" y="-515" as="targetPoint" />
          </mxGeometry>
        </mxCell>
        <mxCell id="bxZLJlHsnHyx1dcmcsCU-66" value="" style="endArrow=classic;html=1;rounded=0;fontSize=12;startSize=8;endSize=8;curved=1;" parent="1" edge="1">
          <mxGeometry width="50" height="50" relative="1" as="geometry">
            <mxPoint x="257" y="-515" as="sourcePoint" />
            <mxPoint x="257" y="-463" as="targetPoint" />
          </mxGeometry>
        </mxCell>
        <mxCell id="bxZLJlHsnHyx1dcmcsCU-67" value="" style="endArrow=none;html=1;rounded=0;fontSize=12;startSize=8;endSize=8;curved=1;" parent="1" edge="1">
          <mxGeometry width="50" height="50" relative="1" as="geometry">
            <mxPoint x="385" y="-512" as="sourcePoint" />
            <mxPoint x="385" y="-593" as="targetPoint" />
          </mxGeometry>
        </mxCell>
        <mxCell id="bxZLJlHsnHyx1dcmcsCU-68" value="" style="endArrow=none;html=1;rounded=0;fontSize=12;startSize=8;endSize=8;curved=1;" parent="1" edge="1">
          <mxGeometry width="50" height="50" relative="1" as="geometry">
            <mxPoint x="320" y="-515" as="sourcePoint" />
            <mxPoint x="387" y="-515" as="targetPoint" />
          </mxGeometry>
        </mxCell>
        <mxCell id="bxZLJlHsnHyx1dcmcsCU-69" value="" style="endArrow=classic;html=1;rounded=0;fontSize=12;startSize=8;endSize=8;curved=1;entryX=0.167;entryY=0.967;entryDx=0;entryDy=0;entryPerimeter=0;" parent="1" target="bxZLJlHsnHyx1dcmcsCU-62" edge="1">
          <mxGeometry width="50" height="50" relative="1" as="geometry">
            <mxPoint x="319" y="-515" as="sourcePoint" />
            <mxPoint x="369" y="-565" as="targetPoint" />
          </mxGeometry>
        </mxCell>
        <mxCell id="bxZLJlHsnHyx1dcmcsCU-70" value="" style="shape=trapezoid;perimeter=trapezoidPerimeter;whiteSpace=wrap;html=1;fixedSize=1;direction=west;" parent="1" vertex="1">
          <mxGeometry x="749" y="-433" width="120" height="60" as="geometry" />
        </mxCell>
        <mxCell id="bxZLJlHsnHyx1dcmcsCU-71" value="" style="endArrow=none;html=1;rounded=0;fontSize=12;startSize=8;endSize=8;curved=1;" parent="1" edge="1">
          <mxGeometry width="50" height="50" relative="1" as="geometry">
            <mxPoint x="728" y="-500" as="sourcePoint" />
            <mxPoint x="780" y="-500" as="targetPoint" />
          </mxGeometry>
        </mxCell>
        <mxCell id="bxZLJlHsnHyx1dcmcsCU-72" value="" style="endArrow=classic;html=1;rounded=0;fontSize=12;startSize=8;endSize=8;curved=1;entryX=0.315;entryY=0.433;entryDx=0;entryDy=0;entryPerimeter=0;" parent="1" edge="1" target="bxZLJlHsnHyx1dcmcsCU-85">
          <mxGeometry width="50" height="50" relative="1" as="geometry">
            <mxPoint x="779.91" y="-502" as="sourcePoint" />
            <mxPoint x="779.91" y="-450" as="targetPoint" />
          </mxGeometry>
        </mxCell>
        <mxCell id="bxZLJlHsnHyx1dcmcsCU-73" value="" style="endArrow=none;html=1;rounded=0;fontSize=12;startSize=8;endSize=8;curved=1;" parent="1" edge="1">
          <mxGeometry width="50" height="50" relative="1" as="geometry">
            <mxPoint x="850" y="-500" as="sourcePoint" />
            <mxPoint x="1014" y="-500" as="targetPoint" />
          </mxGeometry>
        </mxCell>
        <mxCell id="bxZLJlHsnHyx1dcmcsCU-74" value="" style="endArrow=classic;html=1;rounded=0;fontSize=12;startSize=8;endSize=8;curved=1;entryX=0.167;entryY=0.967;entryDx=0;entryDy=0;entryPerimeter=0;" parent="1" target="bxZLJlHsnHyx1dcmcsCU-70" edge="1">
          <mxGeometry width="50" height="50" relative="1" as="geometry">
            <mxPoint x="849" y="-500" as="sourcePoint" />
            <mxPoint x="996" y="-550" as="targetPoint" />
          </mxGeometry>
        </mxCell>
        <mxCell id="bxZLJlHsnHyx1dcmcsCU-75" value="" style="endArrow=none;html=1;rounded=0;fontSize=12;startSize=8;endSize=8;curved=1;entryX=0.083;entryY=1;entryDx=0;entryDy=0;entryPerimeter=0;" parent="1" target="bxZLJlHsnHyx1dcmcsCU-49" edge="1">
          <mxGeometry width="50" height="50" relative="1" as="geometry">
            <mxPoint x="1015" y="-502" as="sourcePoint" />
            <mxPoint x="1023" y="-586" as="targetPoint" />
          </mxGeometry>
        </mxCell>
        <mxCell id="bxZLJlHsnHyx1dcmcsCU-76" value="" style="endArrow=none;html=1;rounded=0;fontSize=12;startSize=8;endSize=8;curved=1;entryX=0.5;entryY=1;entryDx=0;entryDy=0;" parent="1" target="bxZLJlHsnHyx1dcmcsCU-45" edge="1">
          <mxGeometry width="50" height="50" relative="1" as="geometry">
            <mxPoint x="729" y="-503" as="sourcePoint" />
            <mxPoint x="719" y="-591" as="targetPoint" />
          </mxGeometry>
        </mxCell>
        <mxCell id="bxZLJlHsnHyx1dcmcsCU-77" value="" style="endArrow=none;html=1;rounded=0;fontSize=12;startSize=8;endSize=8;curved=1;" parent="1" edge="1">
          <mxGeometry width="50" height="50" relative="1" as="geometry">
            <mxPoint x="798" y="-307" as="sourcePoint" />
            <mxPoint x="798" y="-373" as="targetPoint" />
          </mxGeometry>
        </mxCell>
        <mxCell id="bxZLJlHsnHyx1dcmcsCU-79" value="" style="endArrow=none;html=1;rounded=0;fontSize=12;startSize=8;endSize=8;curved=1;" parent="1" edge="1">
          <mxGeometry width="50" height="50" relative="1" as="geometry">
            <mxPoint x="302" y="-375" as="sourcePoint" />
            <mxPoint x="302" y="-409" as="targetPoint" />
          </mxGeometry>
        </mxCell>
        <mxCell id="bxZLJlHsnHyx1dcmcsCU-80" value="" style="endArrow=classic;html=1;rounded=0;fontSize=12;startSize=8;endSize=8;curved=1;entryX=0.192;entryY=0.95;entryDx=0;entryDy=0;entryPerimeter=0;" parent="1" target="bxZLJlHsnHyx1dcmcsCU-63" edge="1">
          <mxGeometry width="50" height="50" relative="1" as="geometry">
            <mxPoint x="797" y="-332" as="sourcePoint" />
            <mxPoint x="677" y="-378" as="targetPoint" />
          </mxGeometry>
        </mxCell>
        <mxCell id="bxZLJlHsnHyx1dcmcsCU-81" value="" style="endArrow=classic;html=1;rounded=0;fontSize=12;startSize=8;endSize=8;curved=1;entryX=0.858;entryY=0.95;entryDx=0;entryDy=0;entryPerimeter=0;" parent="1" target="bxZLJlHsnHyx1dcmcsCU-63" edge="1">
          <mxGeometry width="50" height="50" relative="1" as="geometry">
            <mxPoint x="722" y="-330" as="sourcePoint" />
            <mxPoint x="594" y="-386" as="targetPoint" />
          </mxGeometry>
        </mxCell>
        <mxCell id="bxZLJlHsnHyx1dcmcsCU-82" value="0" style="text;strokeColor=none;fillColor=none;html=1;align=center;verticalAlign=middle;whiteSpace=wrap;rounded=0;fontSize=16;" parent="1" vertex="1">
          <mxGeometry x="284" y="-463" width="60" height="30" as="geometry" />
        </mxCell>
        <mxCell id="bxZLJlHsnHyx1dcmcsCU-83" value="1" style="text;strokeColor=none;fillColor=none;html=1;align=center;verticalAlign=middle;whiteSpace=wrap;rounded=0;fontSize=16;" parent="1" vertex="1">
          <mxGeometry x="228" y="-463" width="60" height="30" as="geometry" />
        </mxCell>
        <mxCell id="bxZLJlHsnHyx1dcmcsCU-84" value="0" style="text;strokeColor=none;fillColor=none;html=1;align=center;verticalAlign=middle;whiteSpace=wrap;rounded=0;fontSize=16;" parent="1" vertex="1">
          <mxGeometry x="819" y="-431" width="60" height="30" as="geometry" />
        </mxCell>
        <mxCell id="bxZLJlHsnHyx1dcmcsCU-85" value="1" style="text;strokeColor=none;fillColor=none;html=1;align=center;verticalAlign=middle;whiteSpace=wrap;rounded=0;fontSize=16;" parent="1" vertex="1">
          <mxGeometry x="761" y="-433" width="60" height="30" as="geometry" />
        </mxCell>
        <mxCell id="bxZLJlHsnHyx1dcmcsCU-86" value="" style="endArrow=classic;html=1;rounded=0;fontSize=12;startSize=8;endSize=8;curved=1;entryX=0;entryY=0.25;entryDx=0;entryDy=0;" parent="1" target="bxZLJlHsnHyx1dcmcsCU-62" edge="1">
          <mxGeometry width="50" height="50" relative="1" as="geometry">
            <mxPoint x="403" y="-425" as="sourcePoint" />
            <mxPoint x="439" y="-460" as="targetPoint" />
          </mxGeometry>
        </mxCell>
        <mxCell id="bxZLJlHsnHyx1dcmcsCU-87" value="" style="endArrow=classic;html=1;rounded=0;fontSize=12;startSize=8;endSize=8;curved=1;entryX=0;entryY=0.25;entryDx=0;entryDy=0;" parent="1" target="bxZLJlHsnHyx1dcmcsCU-70" edge="1">
          <mxGeometry width="50" height="50" relative="1" as="geometry">
            <mxPoint x="924" y="-394" as="sourcePoint" />
            <mxPoint x="969" y="-438" as="targetPoint" />
          </mxGeometry>
        </mxCell>
        <mxCell id="bxZLJlHsnHyx1dcmcsCU-88" value="LD14" style="text;strokeColor=none;fillColor=none;html=1;align=center;verticalAlign=middle;whiteSpace=wrap;rounded=0;fontSize=16;" parent="1" vertex="1">
          <mxGeometry x="390" y="-439" width="60" height="30" as="geometry" />
        </mxCell>
        <mxCell id="bxZLJlHsnHyx1dcmcsCU-89" value="LD12" style="text;strokeColor=none;fillColor=none;html=1;align=center;verticalAlign=middle;whiteSpace=wrap;rounded=0;fontSize=16;" parent="1" vertex="1">
          <mxGeometry x="913" y="-408" width="60" height="30" as="geometry" />
        </mxCell>
        <mxCell id="bxZLJlHsnHyx1dcmcsCU-90" value="" style="shape=xor;whiteSpace=wrap;html=1;direction=west;" parent="1" vertex="1">
          <mxGeometry x="861" y="-267.5" width="60" height="80" as="geometry" />
        </mxCell>
        <mxCell id="bxZLJlHsnHyx1dcmcsCU-91" value="" style="endArrow=classic;html=1;rounded=0;fontSize=12;startSize=8;endSize=8;curved=1;entryX=0.033;entryY=0.888;entryDx=0;entryDy=0;entryPerimeter=0;" parent="1" target="bxZLJlHsnHyx1dcmcsCU-90" edge="1">
          <mxGeometry width="50" height="50" relative="1" as="geometry">
            <mxPoint x="966.5" y="-258.5" as="sourcePoint" />
            <mxPoint x="1056" y="-305.5" as="targetPoint" />
          </mxGeometry>
        </mxCell>
        <mxCell id="bxZLJlHsnHyx1dcmcsCU-92" value="" style="endArrow=classic;html=1;rounded=0;fontSize=12;startSize=8;endSize=8;curved=1;entryX=0.067;entryY=0.1;entryDx=0;entryDy=0;entryPerimeter=0;" parent="1" target="bxZLJlHsnHyx1dcmcsCU-90" edge="1">
          <mxGeometry width="50" height="50" relative="1" as="geometry">
            <mxPoint x="956.5" y="-195.5" as="sourcePoint" />
            <mxPoint x="1056" y="-241.5" as="targetPoint" />
          </mxGeometry>
        </mxCell>
        <mxCell id="bxZLJlHsnHyx1dcmcsCU-93" value="LD14" style="text;strokeColor=none;fillColor=none;html=1;align=center;verticalAlign=middle;whiteSpace=wrap;rounded=0;fontSize=16;" parent="1" vertex="1">
          <mxGeometry x="961.5" y="-272" width="60" height="30" as="geometry" />
        </mxCell>
        <mxCell id="bxZLJlHsnHyx1dcmcsCU-94" value="LD15" style="text;strokeColor=none;fillColor=none;html=1;align=center;verticalAlign=middle;whiteSpace=wrap;rounded=0;fontSize=16;" parent="1" vertex="1">
          <mxGeometry x="958.5" y="-212" width="60" height="30" as="geometry" />
        </mxCell>
        <mxCell id="bxZLJlHsnHyx1dcmcsCU-95" value="" style="endArrow=classic;html=1;rounded=0;fontSize=12;startSize=8;endSize=8;curved=1;entryX=0;entryY=0.25;entryDx=0;entryDy=0;exitX=1;exitY=0.5;exitDx=0;exitDy=0;exitPerimeter=0;" parent="1" target="bxZLJlHsnHyx1dcmcsCU-63" edge="1" source="bxZLJlHsnHyx1dcmcsCU-90">
          <mxGeometry width="50" height="50" relative="1" as="geometry">
            <mxPoint x="885" y="-246" as="sourcePoint" />
            <mxPoint x="935" y="-296" as="targetPoint" />
          </mxGeometry>
        </mxCell>
        <mxCell id="bxZLJlHsnHyx1dcmcsCU-96" value="0" style="text;strokeColor=none;fillColor=none;html=1;align=center;verticalAlign=middle;whiteSpace=wrap;rounded=0;fontSize=16;" parent="1" vertex="1">
          <mxGeometry x="774" y="-272" width="60" height="30" as="geometry" />
        </mxCell>
        <mxCell id="bxZLJlHsnHyx1dcmcsCU-97" value="1" style="text;strokeColor=none;fillColor=none;html=1;align=center;verticalAlign=middle;whiteSpace=wrap;rounded=0;fontSize=16;" parent="1" vertex="1">
          <mxGeometry x="692" y="-272" width="60" height="30" as="geometry" />
        </mxCell>
        <mxCell id="bxZLJlHsnHyx1dcmcsCU-98" value="" style="rounded=0;whiteSpace=wrap;html=1;" parent="1" vertex="1">
          <mxGeometry x="705" y="-101" width="166" height="76" as="geometry" />
        </mxCell>
        <mxCell id="bxZLJlHsnHyx1dcmcsCU-99" value="Increment and Decrement Time (Counters)" style="text;strokeColor=none;fillColor=none;html=1;align=center;verticalAlign=middle;whiteSpace=wrap;rounded=0;fontSize=13;" parent="1" vertex="1">
          <mxGeometry x="731" y="-72" width="99" height="4" as="geometry" />
        </mxCell>
        <mxCell id="bxZLJlHsnHyx1dcmcsCU-100" value="" style="triangle;whiteSpace=wrap;html=1;" parent="1" vertex="1">
          <mxGeometry x="705" y="-99" width="23" height="27" as="geometry" />
        </mxCell>
        <mxCell id="bxZLJlHsnHyx1dcmcsCU-101" value="Up/Down Sel" style="text;strokeColor=none;fillColor=none;html=1;align=center;verticalAlign=middle;whiteSpace=wrap;rounded=0;fontSize=12;" parent="1" vertex="1">
          <mxGeometry x="834" y="-41.5" width="27" height="11" as="geometry" />
        </mxCell>
        <mxCell id="bxZLJlHsnHyx1dcmcsCU-102" value="" style="endArrow=classic;html=1;rounded=0;fontSize=12;startSize=8;endSize=8;curved=1;exitX=0.383;exitY=1.117;exitDx=0;exitDy=0;entryX=0.355;entryY=0;entryDx=0;entryDy=0;exitPerimeter=0;entryPerimeter=0;" parent="1" source="bxZLJlHsnHyx1dcmcsCU-209" target="bxZLJlHsnHyx1dcmcsCU-98" edge="1">
          <mxGeometry width="50" height="50" relative="1" as="geometry">
            <mxPoint x="576" y="-219" as="sourcePoint" />
            <mxPoint x="573" y="-140" as="targetPoint" />
          </mxGeometry>
        </mxCell>
        <mxCell id="bxZLJlHsnHyx1dcmcsCU-103" value="LS" style="text;strokeColor=none;fillColor=none;html=1;align=center;verticalAlign=middle;whiteSpace=wrap;rounded=0;fontSize=12;" parent="1" vertex="1">
          <mxGeometry x="-134.56" y="360" width="16" height="13" as="geometry" />
        </mxCell>
        <mxCell id="bxZLJlHsnHyx1dcmcsCU-104" value="" style="shape=xor;whiteSpace=wrap;html=1;direction=west;" parent="1" vertex="1">
          <mxGeometry x="-83.56" y="330" width="60" height="80" as="geometry" />
        </mxCell>
        <mxCell id="bxZLJlHsnHyx1dcmcsCU-105" value="" style="endArrow=classic;html=1;rounded=0;fontSize=12;startSize=8;endSize=8;curved=1;entryX=0.033;entryY=0.888;entryDx=0;entryDy=0;entryPerimeter=0;" parent="1" target="bxZLJlHsnHyx1dcmcsCU-104" edge="1">
          <mxGeometry width="50" height="50" relative="1" as="geometry">
            <mxPoint x="68.44" y="339" as="sourcePoint" />
            <mxPoint x="111.44" y="292" as="targetPoint" />
          </mxGeometry>
        </mxCell>
        <mxCell id="bxZLJlHsnHyx1dcmcsCU-106" value="" style="endArrow=classic;html=1;rounded=0;fontSize=12;startSize=8;endSize=8;curved=1;entryX=0.067;entryY=0.1;entryDx=0;entryDy=0;entryPerimeter=0;" parent="1" target="bxZLJlHsnHyx1dcmcsCU-104" edge="1">
          <mxGeometry width="50" height="50" relative="1" as="geometry">
            <mxPoint x="68.44" y="402" as="sourcePoint" />
            <mxPoint x="111.44" y="356" as="targetPoint" />
          </mxGeometry>
        </mxCell>
        <mxCell id="bxZLJlHsnHyx1dcmcsCU-109" value="" style="endArrow=classic;html=1;rounded=0;fontSize=12;startSize=8;endSize=8;curved=1;" parent="1" edge="1">
          <mxGeometry width="50" height="50" relative="1" as="geometry">
            <mxPoint x="-85.56" y="369" as="sourcePoint" />
            <mxPoint x="-116.56" y="369" as="targetPoint" />
          </mxGeometry>
        </mxCell>
        <mxCell id="bxZLJlHsnHyx1dcmcsCU-110" value="" style="endArrow=none;html=1;rounded=0;fontSize=12;startSize=8;endSize=8;curved=1;" parent="1" edge="1">
          <mxGeometry width="50" height="50" relative="1" as="geometry">
            <mxPoint x="787" y="-21" as="sourcePoint" />
            <mxPoint x="787" y="11" as="targetPoint" />
          </mxGeometry>
        </mxCell>
        <mxCell id="bxZLJlHsnHyx1dcmcsCU-111" value="" style="endArrow=none;html=1;rounded=0;fontSize=12;startSize=8;endSize=8;curved=1;" parent="1" edge="1">
          <mxGeometry width="50" height="50" relative="1" as="geometry">
            <mxPoint x="788" y="11" as="sourcePoint" />
            <mxPoint x="1123" y="11" as="targetPoint" />
          </mxGeometry>
        </mxCell>
        <mxCell id="bxZLJlHsnHyx1dcmcsCU-114" value="" style="endArrow=none;html=1;rounded=0;fontSize=12;startSize=8;endSize=8;curved=1;" parent="1" edge="1">
          <mxGeometry width="50" height="50" relative="1" as="geometry">
            <mxPoint x="1170" y="-380" as="sourcePoint" />
            <mxPoint x="1166" y="-723" as="targetPoint" />
          </mxGeometry>
        </mxCell>
        <mxCell id="bxZLJlHsnHyx1dcmcsCU-115" value="" style="endArrow=none;html=1;rounded=0;fontSize=12;startSize=8;endSize=8;curved=1;" parent="1" edge="1">
          <mxGeometry width="50" height="50" relative="1" as="geometry">
            <mxPoint x="852" y="-719" as="sourcePoint" />
            <mxPoint x="1164" y="-723" as="targetPoint" />
          </mxGeometry>
        </mxCell>
        <mxCell id="bxZLJlHsnHyx1dcmcsCU-117" value="" style="endArrow=none;html=1;rounded=0;fontSize=12;startSize=8;endSize=8;curved=1;" parent="1" edge="1">
          <mxGeometry width="50" height="50" relative="1" as="geometry">
            <mxPoint x="726" y="-522" as="sourcePoint" />
            <mxPoint x="599" y="-522" as="targetPoint" />
          </mxGeometry>
        </mxCell>
        <mxCell id="bxZLJlHsnHyx1dcmcsCU-118" value="" style="endArrow=none;html=1;rounded=0;fontSize=12;startSize=8;endSize=8;curved=1;" parent="1" edge="1">
          <mxGeometry width="50" height="50" relative="1" as="geometry">
            <mxPoint x="598" y="-521" as="sourcePoint" />
            <mxPoint x="595" y="-746" as="targetPoint" />
          </mxGeometry>
        </mxCell>
        <mxCell id="bxZLJlHsnHyx1dcmcsCU-119" value="" style="endArrow=none;html=1;rounded=0;fontSize=12;startSize=8;endSize=8;curved=1;" parent="1" edge="1">
          <mxGeometry width="50" height="50" relative="1" as="geometry">
            <mxPoint x="594" y="-744" as="sourcePoint" />
            <mxPoint x="50" y="-742" as="targetPoint" />
          </mxGeometry>
        </mxCell>
        <mxCell id="bxZLJlHsnHyx1dcmcsCU-122" value="" style="endArrow=none;html=1;rounded=0;fontSize=12;startSize=8;endSize=8;curved=1;" parent="1" edge="1">
          <mxGeometry width="50" height="50" relative="1" as="geometry">
            <mxPoint x="916" y="-560" as="sourcePoint" />
            <mxPoint x="1016" y="-560" as="targetPoint" />
          </mxGeometry>
        </mxCell>
        <mxCell id="bxZLJlHsnHyx1dcmcsCU-144" value="" style="triangle;whiteSpace=wrap;html=1;direction=south;" parent="1" vertex="1">
          <mxGeometry x="-134.56" y="42" width="80" height="60" as="geometry" />
        </mxCell>
        <mxCell id="bxZLJlHsnHyx1dcmcsCU-145" value="" style="ellipse;whiteSpace=wrap;html=1;aspect=fixed;" parent="1" vertex="1">
          <mxGeometry x="-99.06" y="101" width="9" height="9" as="geometry" />
        </mxCell>
        <mxCell id="bxZLJlHsnHyx1dcmcsCU-155" value="" style="shape=or;whiteSpace=wrap;html=1;direction=south;" parent="1" vertex="1">
          <mxGeometry x="-126.56" y="172" width="365" height="79" as="geometry" />
        </mxCell>
        <mxCell id="bxZLJlHsnHyx1dcmcsCU-158" value="Alarm_Signal" style="text;strokeColor=none;fillColor=none;html=1;align=center;verticalAlign=middle;whiteSpace=wrap;rounded=0;fontSize=16;" parent="1" vertex="1">
          <mxGeometry x="-124.55999999999995" y="297" width="60" height="30" as="geometry" />
        </mxCell>
        <mxCell id="bxZLJlHsnHyx1dcmcsCU-159" value="" style="endArrow=none;html=1;rounded=0;fontSize=12;startSize=8;endSize=8;curved=1;" parent="1" edge="1">
          <mxGeometry width="50" height="50" relative="1" as="geometry">
            <mxPoint x="534" y="-715" as="sourcePoint" />
            <mxPoint x="860" y="-720" as="targetPoint" />
          </mxGeometry>
        </mxCell>
        <mxCell id="bxZLJlHsnHyx1dcmcsCU-160" value="" style="endArrow=none;html=1;rounded=0;fontSize=12;startSize=8;endSize=8;curved=1;" parent="1" edge="1">
          <mxGeometry width="50" height="50" relative="1" as="geometry">
            <mxPoint x="532" y="-604" as="sourcePoint" />
            <mxPoint x="532" y="-714" as="targetPoint" />
          </mxGeometry>
        </mxCell>
        <mxCell id="bxZLJlHsnHyx1dcmcsCU-161" value="" style="endArrow=classic;html=1;rounded=0;fontSize=12;startSize=8;endSize=8;curved=1;entryX=1;entryY=0.5;entryDx=0;entryDy=0;" parent="1" target="bxZLJlHsnHyx1dcmcsCU-44" edge="1">
          <mxGeometry width="50" height="50" relative="1" as="geometry">
            <mxPoint x="534" y="-606" as="sourcePoint" />
            <mxPoint x="584" y="-656" as="targetPoint" />
          </mxGeometry>
        </mxCell>
        <mxCell id="bxZLJlHsnHyx1dcmcsCU-162" value="" style="endArrow=none;html=1;rounded=0;fontSize=12;startSize=8;endSize=8;curved=1;" parent="1" edge="1">
          <mxGeometry width="50" height="50" relative="1" as="geometry">
            <mxPoint x="257" y="-711" as="sourcePoint" />
            <mxPoint x="532" y="-714" as="targetPoint" />
          </mxGeometry>
        </mxCell>
        <mxCell id="bxZLJlHsnHyx1dcmcsCU-163" value="" style="endArrow=none;html=1;rounded=0;fontSize=12;startSize=8;endSize=8;curved=1;" parent="1" edge="1">
          <mxGeometry width="50" height="50" relative="1" as="geometry">
            <mxPoint x="262" y="-607" as="sourcePoint" />
            <mxPoint x="262" y="-710" as="targetPoint" />
          </mxGeometry>
        </mxCell>
        <mxCell id="bxZLJlHsnHyx1dcmcsCU-164" value="" style="endArrow=classic;html=1;rounded=0;fontSize=12;startSize=8;endSize=8;curved=1;entryX=1;entryY=0.5;entryDx=0;entryDy=0;" parent="1" target="bxZLJlHsnHyx1dcmcsCU-40" edge="1">
          <mxGeometry width="50" height="50" relative="1" as="geometry">
            <mxPoint x="265" y="-606" as="sourcePoint" />
            <mxPoint x="315" y="-656" as="targetPoint" />
          </mxGeometry>
        </mxCell>
        <mxCell id="bxZLJlHsnHyx1dcmcsCU-165" value="" style="endArrow=none;html=1;rounded=0;fontSize=12;startSize=8;endSize=8;curved=1;" parent="1" edge="1">
          <mxGeometry width="50" height="50" relative="1" as="geometry">
            <mxPoint x="123.00000000000023" y="-397" as="sourcePoint" />
            <mxPoint x="123" y="-397" as="targetPoint" />
          </mxGeometry>
        </mxCell>
        <mxCell id="bxZLJlHsnHyx1dcmcsCU-166" value="" style="endArrow=none;html=1;rounded=0;fontSize=12;startSize=8;endSize=8;curved=1;" parent="1" edge="1">
          <mxGeometry width="50" height="50" relative="1" as="geometry">
            <mxPoint x="386" y="-523" as="sourcePoint" />
            <mxPoint x="489" y="-523" as="targetPoint" />
          </mxGeometry>
        </mxCell>
        <mxCell id="bxZLJlHsnHyx1dcmcsCU-167" value="" style="endArrow=classic;html=1;rounded=0;fontSize=12;startSize=8;endSize=8;curved=1;entryX=0;entryY=0.25;entryDx=0;entryDy=0;entryPerimeter=0;" parent="1" source="bxZLJlHsnHyx1dcmcsCU-280" target="zsQn-SWkJ-bh9JfCaFK9-18" edge="1">
          <mxGeometry width="50" height="50" relative="1" as="geometry">
            <mxPoint x="114.44" y="-486" as="sourcePoint" />
            <mxPoint x="110.44" y="-134" as="targetPoint" />
          </mxGeometry>
        </mxCell>
        <mxCell id="bxZLJlHsnHyx1dcmcsCU-169" value="" style="endArrow=none;html=1;rounded=0;fontSize=12;startSize=8;endSize=8;curved=1;" parent="1" edge="1">
          <mxGeometry width="50" height="50" relative="1" as="geometry">
            <mxPoint x="-130" y="-270" as="sourcePoint" />
            <mxPoint x="16.439999999999998" y="-271" as="targetPoint" />
          </mxGeometry>
        </mxCell>
        <mxCell id="bxZLJlHsnHyx1dcmcsCU-170" value="" style="endArrow=classic;html=1;rounded=0;fontSize=12;startSize=8;endSize=8;curved=1;entryX=0;entryY=0.25;entryDx=0;entryDy=0;entryPerimeter=0;" parent="1" target="zsQn-SWkJ-bh9JfCaFK9-17" edge="1">
          <mxGeometry width="50" height="50" relative="1" as="geometry">
            <mxPoint x="18.084986449864516" y="-218" as="sourcePoint" />
            <mxPoint x="20.439999999999998" y="-139" as="targetPoint" />
          </mxGeometry>
        </mxCell>
        <mxCell id="bxZLJlHsnHyx1dcmcsCU-187" style="edgeStyle=none;curved=1;rounded=0;orthogonalLoop=1;jettySize=auto;html=1;exitX=0.5;exitY=0;exitDx=0;exitDy=0;fontSize=12;startSize=8;endSize=8;" parent="1" edge="1">
          <mxGeometry relative="1" as="geometry">
            <mxPoint x="585.9999999999995" y="-578.0000000000002" as="sourcePoint" />
            <mxPoint x="585.9999999999995" y="-578.0000000000002" as="targetPoint" />
          </mxGeometry>
        </mxCell>
        <mxCell id="bxZLJlHsnHyx1dcmcsCU-188" value="" style="rounded=0;whiteSpace=wrap;html=1;" parent="1" vertex="1">
          <mxGeometry x="-620" y="-566" width="120" height="60" as="geometry" />
        </mxCell>
        <mxCell id="bxZLJlHsnHyx1dcmcsCU-189" value="" style="triangle;whiteSpace=wrap;html=1;" parent="1" vertex="1">
          <mxGeometry x="-620" y="-530" width="16" height="24" as="geometry" />
        </mxCell>
        <mxCell id="bxZLJlHsnHyx1dcmcsCU-190" value="Clock Divider" style="text;strokeColor=none;fillColor=none;html=1;align=center;verticalAlign=middle;whiteSpace=wrap;rounded=0;fontSize=14;" parent="1" vertex="1">
          <mxGeometry x="-587.5" y="-547.5" width="55" height="23" as="geometry" />
        </mxCell>
        <mxCell id="bxZLJlHsnHyx1dcmcsCU-191" value="" style="endArrow=none;html=1;rounded=0;fontSize=12;startSize=8;endSize=8;curved=1;" parent="1" edge="1">
          <mxGeometry width="50" height="50" relative="1" as="geometry">
            <mxPoint x="-628" y="-518" as="sourcePoint" />
            <mxPoint x="-628" y="-649" as="targetPoint" />
          </mxGeometry>
        </mxCell>
        <mxCell id="bxZLJlHsnHyx1dcmcsCU-192" value="" style="endArrow=classic;html=1;rounded=0;fontSize=12;startSize=8;endSize=8;curved=1;entryX=0;entryY=0.5;entryDx=0;entryDy=0;" parent="1" target="bxZLJlHsnHyx1dcmcsCU-189" edge="1">
          <mxGeometry width="50" height="50" relative="1" as="geometry">
            <mxPoint x="-628" y="-518" as="sourcePoint" />
            <mxPoint x="-578" y="-512" as="targetPoint" />
          </mxGeometry>
        </mxCell>
        <mxCell id="bxZLJlHsnHyx1dcmcsCU-194" value="1Hz" style="text;strokeColor=none;fillColor=none;html=1;align=center;verticalAlign=middle;whiteSpace=wrap;rounded=0;fontSize=16;" parent="1" vertex="1">
          <mxGeometry x="-438" y="-696" width="60" height="30" as="geometry" />
        </mxCell>
        <mxCell id="bxZLJlHsnHyx1dcmcsCU-197" value="" style="endArrow=none;html=1;rounded=0;fontSize=12;startSize=8;endSize=8;curved=1;" parent="1" edge="1">
          <mxGeometry width="50" height="50" relative="1" as="geometry">
            <mxPoint x="36" y="-755" as="sourcePoint" />
            <mxPoint x="916" y="-758" as="targetPoint" />
          </mxGeometry>
        </mxCell>
        <mxCell id="bxZLJlHsnHyx1dcmcsCU-198" value="" style="endArrow=none;html=1;rounded=0;fontSize=12;startSize=8;endSize=8;curved=1;" parent="1" edge="1">
          <mxGeometry width="50" height="50" relative="1" as="geometry">
            <mxPoint x="915" y="-562" as="sourcePoint" />
            <mxPoint x="915" y="-759" as="targetPoint" />
          </mxGeometry>
        </mxCell>
        <mxCell id="bxZLJlHsnHyx1dcmcsCU-207" value="2*1 MUX" style="text;strokeColor=none;fillColor=none;html=1;align=center;verticalAlign=middle;whiteSpace=wrap;rounded=0;fontSize=14;" parent="1" vertex="1">
          <mxGeometry x="250" y="-442.5" width="60" height="30" as="geometry" />
        </mxCell>
        <mxCell id="bxZLJlHsnHyx1dcmcsCU-208" value="2*1 MUX" style="text;strokeColor=none;fillColor=none;html=1;align=center;verticalAlign=middle;whiteSpace=wrap;rounded=0;fontSize=14;" parent="1" vertex="1">
          <mxGeometry x="786" y="-408" width="60" height="30" as="geometry" />
        </mxCell>
        <mxCell id="bxZLJlHsnHyx1dcmcsCU-209" value="2*1 MUX" style="text;strokeColor=none;fillColor=none;html=1;align=center;verticalAlign=middle;whiteSpace=wrap;rounded=0;fontSize=14;" parent="1" vertex="1">
          <mxGeometry x="735" y="-250.5" width="60" height="30" as="geometry" />
        </mxCell>
        <mxCell id="bxZLJlHsnHyx1dcmcsCU-211" value="" style="endArrow=none;html=1;rounded=0;fontSize=12;startSize=8;endSize=8;curved=1;" parent="1" edge="1">
          <mxGeometry width="50" height="50" relative="1" as="geometry">
            <mxPoint x="-40" y="-329" as="sourcePoint" />
            <mxPoint x="80" y="-327" as="targetPoint" />
          </mxGeometry>
        </mxCell>
        <mxCell id="bxZLJlHsnHyx1dcmcsCU-212" value="" style="endArrow=classic;html=1;rounded=0;fontSize=12;startSize=8;endSize=8;curved=1;entryX=0;entryY=0.75;entryDx=0;entryDy=0;entryPerimeter=0;" parent="1" target="zsQn-SWkJ-bh9JfCaFK9-18" edge="1">
          <mxGeometry width="50" height="50" relative="1" as="geometry">
            <mxPoint x="80" y="-326" as="sourcePoint" />
            <mxPoint x="461" y="-180" as="targetPoint" />
          </mxGeometry>
        </mxCell>
        <mxCell id="bxZLJlHsnHyx1dcmcsCU-219" value="" style="endArrow=classic;html=1;rounded=0;fontSize=12;startSize=8;endSize=8;curved=1;entryX=0;entryY=0.75;entryDx=0;entryDy=0;entryPerimeter=0;" parent="1" target="zsQn-SWkJ-bh9JfCaFK9-17" edge="1">
          <mxGeometry width="50" height="50" relative="1" as="geometry">
            <mxPoint x="-12" y="-300" as="sourcePoint" />
            <mxPoint x="-8.560000000000002" y="-132" as="targetPoint" />
          </mxGeometry>
        </mxCell>
        <mxCell id="bxZLJlHsnHyx1dcmcsCU-220" value="" style="endArrow=classic;html=1;rounded=0;fontSize=12;startSize=8;endSize=8;curved=1;entryX=0.867;entryY=0.976;entryDx=0;entryDy=0;entryPerimeter=0;" parent="1" target="bxZLJlHsnHyx1dcmcsCU-98" edge="1">
          <mxGeometry width="50" height="50" relative="1" as="geometry">
            <mxPoint x="849" y="18" as="sourcePoint" />
            <mxPoint x="808" y="-41" as="targetPoint" />
          </mxGeometry>
        </mxCell>
        <mxCell id="bxZLJlHsnHyx1dcmcsCU-221" value="Inc" style="text;strokeColor=none;fillColor=none;html=1;align=center;verticalAlign=middle;whiteSpace=wrap;rounded=0;fontSize=14;" parent="1" vertex="1">
          <mxGeometry x="821" y="14.5" width="60" height="30" as="geometry" />
        </mxCell>
        <mxCell id="bxZLJlHsnHyx1dcmcsCU-222" value="" style="rounded=0;whiteSpace=wrap;html=1;direction=east;" parent="1" vertex="1">
          <mxGeometry x="-368" y="-134.88" width="120" height="60" as="geometry" />
        </mxCell>
        <mxCell id="bxZLJlHsnHyx1dcmcsCU-223" value="" style="triangle;whiteSpace=wrap;html=1;direction=west;" parent="1" vertex="1">
          <mxGeometry x="-264" y="-103.13" width="16" height="24" as="geometry" />
        </mxCell>
        <mxCell id="bxZLJlHsnHyx1dcmcsCU-224" value="Clock Divider" style="text;strokeColor=none;fillColor=none;html=1;align=center;verticalAlign=middle;whiteSpace=wrap;rounded=0;fontSize=14;direction=east;" parent="1" vertex="1">
          <mxGeometry x="-335.5" y="-116.38" width="55" height="23" as="geometry" />
        </mxCell>
        <mxCell id="bxZLJlHsnHyx1dcmcsCU-225" value="" style="endArrow=classic;html=1;rounded=0;fontSize=12;startSize=8;endSize=8;curved=1;" parent="1" edge="1">
          <mxGeometry width="50" height="50" relative="1" as="geometry">
            <mxPoint x="-417" y="-88.88" as="sourcePoint" />
            <mxPoint x="-367" y="-88.88" as="targetPoint" />
          </mxGeometry>
        </mxCell>
        <mxCell id="bxZLJlHsnHyx1dcmcsCU-226" value="100MHz" style="text;strokeColor=none;fillColor=none;html=1;align=center;verticalAlign=middle;whiteSpace=wrap;rounded=0;fontSize=16;" parent="1" vertex="1">
          <mxGeometry x="-222.44" y="-120.38" width="60" height="30" as="geometry" />
        </mxCell>
        <mxCell id="bxZLJlHsnHyx1dcmcsCU-227" value="En" style="text;strokeColor=none;fillColor=none;html=1;align=center;verticalAlign=middle;whiteSpace=wrap;rounded=0;fontSize=16;direction=east;" parent="1" vertex="1">
          <mxGeometry x="-384" y="-103.13" width="60" height="30" as="geometry" />
        </mxCell>
        <mxCell id="bxZLJlHsnHyx1dcmcsCU-228" value="" style="shape=or;whiteSpace=wrap;html=1;direction=east;" parent="1" vertex="1">
          <mxGeometry x="-541.44" y="-163.63" width="124.44" height="148.75" as="geometry" />
        </mxCell>
        <mxCell id="bxZLJlHsnHyx1dcmcsCU-229" value="" style="ellipse;whiteSpace=wrap;html=1;aspect=fixed;" parent="1" vertex="1">
          <mxGeometry x="-557.44" y="-162.38" width="15.5" height="15.5" as="geometry" />
        </mxCell>
        <mxCell id="bxZLJlHsnHyx1dcmcsCU-230" value="" style="ellipse;whiteSpace=wrap;html=1;aspect=fixed;" parent="1" vertex="1">
          <mxGeometry x="-557.94" y="-134.88" width="16.5" height="16.5" as="geometry" />
        </mxCell>
        <mxCell id="bxZLJlHsnHyx1dcmcsCU-231" value="" style="ellipse;whiteSpace=wrap;html=1;aspect=fixed;" parent="1" vertex="1">
          <mxGeometry x="-558.44" y="-104.88" width="16.5" height="16.5" as="geometry" />
        </mxCell>
        <mxCell id="bxZLJlHsnHyx1dcmcsCU-232" value="" style="ellipse;whiteSpace=wrap;html=1;aspect=fixed;" parent="1" vertex="1">
          <mxGeometry x="-558.44" y="-72.13" width="15.5" height="15.5" as="geometry" />
        </mxCell>
        <mxCell id="bxZLJlHsnHyx1dcmcsCU-233" value="" style="ellipse;whiteSpace=wrap;html=1;aspect=fixed;" parent="1" vertex="1">
          <mxGeometry x="-557.94" y="-46.879999999999995" width="14.5" height="14.5" as="geometry" />
        </mxCell>
        <mxCell id="bxZLJlHsnHyx1dcmcsCU-234" value="" style="endArrow=classic;html=1;rounded=0;fontSize=12;startSize=8;endSize=8;curved=1;" parent="1" edge="1">
          <mxGeometry width="50" height="50" relative="1" as="geometry">
            <mxPoint x="-668" y="-152.63" as="sourcePoint" />
            <mxPoint x="-558" y="-153.88" as="targetPoint" />
          </mxGeometry>
        </mxCell>
        <mxCell id="bxZLJlHsnHyx1dcmcsCU-235" value="" style="endArrow=classic;html=1;rounded=0;fontSize=12;startSize=8;endSize=8;curved=1;entryX=1;entryY=0.5;entryDx=0;entryDy=0;" parent="1" edge="1">
          <mxGeometry width="50" height="50" relative="1" as="geometry">
            <mxPoint x="-658" y="-126.63" as="sourcePoint" />
            <mxPoint x="-558" y="-126.34000000000003" as="targetPoint" />
          </mxGeometry>
        </mxCell>
        <mxCell id="bxZLJlHsnHyx1dcmcsCU-236" value="" style="endArrow=classic;html=1;rounded=0;fontSize=12;startSize=8;endSize=8;curved=1;entryX=1;entryY=0.5;entryDx=0;entryDy=0;" parent="1" edge="1">
          <mxGeometry width="50" height="50" relative="1" as="geometry">
            <mxPoint x="-668" y="-96.63" as="sourcePoint" />
            <mxPoint x="-556" y="-96.34000000000003" as="targetPoint" />
          </mxGeometry>
        </mxCell>
        <mxCell id="bxZLJlHsnHyx1dcmcsCU-237" value="" style="endArrow=classic;html=1;rounded=0;fontSize=12;startSize=8;endSize=8;curved=1;" parent="1" edge="1">
          <mxGeometry width="50" height="50" relative="1" as="geometry">
            <mxPoint x="-668" y="-63.629999999999995" as="sourcePoint" />
            <mxPoint x="-558" y="-63.879999999999995" as="targetPoint" />
          </mxGeometry>
        </mxCell>
        <mxCell id="bxZLJlHsnHyx1dcmcsCU-238" value="" style="endArrow=classic;html=1;rounded=0;fontSize=12;startSize=8;endSize=8;curved=1;" parent="1" edge="1">
          <mxGeometry width="50" height="50" relative="1" as="geometry">
            <mxPoint x="-668" y="-38.629999999999995" as="sourcePoint" />
            <mxPoint x="-558" y="-38.879999999999995" as="targetPoint" />
          </mxGeometry>
        </mxCell>
        <mxCell id="bxZLJlHsnHyx1dcmcsCU-239" value="" style="endArrow=classic;html=1;rounded=0;fontSize=12;startSize=8;endSize=8;curved=1;entryX=-0.008;entryY=0.939;entryDx=0;entryDy=0;entryPerimeter=0;" parent="1" target="bxZLJlHsnHyx1dcmcsCU-228" edge="1">
          <mxGeometry width="50" height="50" relative="1" as="geometry">
            <mxPoint x="-668" y="-23.629999999999995" as="sourcePoint" />
            <mxPoint x="-559.2400000000002" y="-16.18999999999994" as="targetPoint" />
          </mxGeometry>
        </mxCell>
        <mxCell id="bxZLJlHsnHyx1dcmcsCU-246" value="" style="endArrow=classic;html=1;rounded=0;" parent="1" edge="1">
          <mxGeometry width="50" height="50" relative="1" as="geometry">
            <mxPoint x="-157" y="-93.63" as="sourcePoint" />
            <mxPoint x="-248" y="-91.88" as="targetPoint" />
          </mxGeometry>
        </mxCell>
        <mxCell id="bxZLJlHsnHyx1dcmcsCU-247" value="" style="endArrow=classic;html=1;rounded=0;" parent="1" edge="1">
          <mxGeometry width="50" height="50" relative="1" as="geometry">
            <mxPoint x="-310" y="-72.88" as="sourcePoint" />
            <mxPoint x="-310" y="-3.6299999999999955" as="targetPoint" />
          </mxGeometry>
        </mxCell>
        <mxCell id="bxZLJlHsnHyx1dcmcsCU-248" value="LDO" style="text;strokeColor=none;fillColor=none;html=1;align=center;verticalAlign=middle;whiteSpace=wrap;rounded=0;fontSize=16;" parent="1" vertex="1">
          <mxGeometry x="-340.5" y="0.8700000000000045" width="60" height="30" as="geometry" />
        </mxCell>
        <mxCell id="bxZLJlHsnHyx1dcmcsCU-249" value="LDO" style="text;strokeColor=none;fillColor=none;html=1;align=center;verticalAlign=middle;whiteSpace=wrap;rounded=0;fontSize=16;" parent="1" vertex="1">
          <mxGeometry x="-68.56" y="-681" width="60" height="30" as="geometry" />
        </mxCell>
        <mxCell id="bxZLJlHsnHyx1dcmcsCU-251" value="" style="ellipse;whiteSpace=wrap;html=1;aspect=fixed;" parent="1" vertex="1">
          <mxGeometry x="-170" y="-670.75" width="10.75" height="10.75" as="geometry" />
        </mxCell>
        <mxCell id="bxZLJlHsnHyx1dcmcsCU-252" value="" style="triangle;whiteSpace=wrap;html=1;direction=west;" parent="1" vertex="1">
          <mxGeometry x="-158.56" y="-684.5" width="24" height="37.5" as="geometry" />
        </mxCell>
        <mxCell id="bxZLJlHsnHyx1dcmcsCU-253" value="" style="endArrow=none;html=1;rounded=0;fontSize=12;startSize=8;endSize=8;curved=1;entryX=-0.08;entryY=0.45;entryDx=0;entryDy=0;entryPerimeter=0;" parent="1" edge="1">
          <mxGeometry width="50" height="50" relative="1" as="geometry">
            <mxPoint x="-134.56" y="-666" as="sourcePoint" />
            <mxPoint x="-62.92000000000013" y="-668" as="targetPoint" />
          </mxGeometry>
        </mxCell>
        <mxCell id="bxZLJlHsnHyx1dcmcsCU-268" value="" style="endArrow=classic;html=1;rounded=0;fontSize=12;startSize=8;endSize=8;curved=1;entryX=0;entryY=0.75;entryDx=0;entryDy=0;entryPerimeter=0;" parent="1" target="zsQn-SWkJ-bh9JfCaFK9-14" edge="1">
          <mxGeometry width="50" height="50" relative="1" as="geometry">
            <mxPoint x="-120" y="-240" as="sourcePoint" />
            <mxPoint x="-109.89600000000024" y="-126.59000000000015" as="targetPoint" />
          </mxGeometry>
        </mxCell>
        <mxCell id="bxZLJlHsnHyx1dcmcsCU-269" value="" style="endArrow=classic;html=1;rounded=0;fontSize=12;startSize=8;endSize=8;curved=1;entryX=0;entryY=0.25;entryDx=0;entryDy=0;entryPerimeter=0;" parent="1" source="bxZLJlHsnHyx1dcmcsCU-271" target="zsQn-SWkJ-bh9JfCaFK9-14" edge="1">
          <mxGeometry width="50" height="50" relative="1" as="geometry">
            <mxPoint x="-87.56" y="-269" as="sourcePoint" />
            <mxPoint x="-54.56000000000023" y="-105.99999999999977" as="targetPoint" />
          </mxGeometry>
        </mxCell>
        <mxCell id="bxZLJlHsnHyx1dcmcsCU-270" value="" style="endArrow=classic;html=1;rounded=0;fontSize=12;startSize=8;endSize=8;curved=1;entryX=0.5;entryY=0;entryDx=0;entryDy=0;" parent="1" target="bxZLJlHsnHyx1dcmcsCU-271" edge="1">
          <mxGeometry width="50" height="50" relative="1" as="geometry">
            <mxPoint x="-84.56" y="-269" as="sourcePoint" />
            <mxPoint x="-83.56" y="-131" as="targetPoint" />
          </mxGeometry>
        </mxCell>
        <mxCell id="bxZLJlHsnHyx1dcmcsCU-271" value="&lt;font style=&quot;font-size: 12px;&quot;&gt;4th digit&amp;nbsp;&lt;/font&gt;" style="text;strokeColor=none;fillColor=none;html=1;align=center;verticalAlign=middle;whiteSpace=wrap;rounded=0;fontSize=16;" parent="1" vertex="1">
          <mxGeometry x="-113.56" y="-225" width="55" height="22" as="geometry" />
        </mxCell>
        <mxCell id="bxZLJlHsnHyx1dcmcsCU-272" value="" style="endArrow=classic;html=1;rounded=0;fontSize=12;startSize=8;endSize=8;curved=1;" parent="1" edge="1">
          <mxGeometry width="50" height="50" relative="1" as="geometry">
            <mxPoint x="20.439999999999998" y="-272" as="sourcePoint" />
            <mxPoint x="19.92245614035113" y="-242.5" as="targetPoint" />
          </mxGeometry>
        </mxCell>
        <mxCell id="bxZLJlHsnHyx1dcmcsCU-273" value="&lt;font style=&quot;font-size: 12px;&quot;&gt;3rd digit&lt;/font&gt;" style="text;strokeColor=none;fillColor=none;html=1;align=center;verticalAlign=middle;whiteSpace=wrap;rounded=0;fontSize=16;" parent="1" vertex="1">
          <mxGeometry x="-8.560000000000002" y="-244" width="57.5" height="26.5" as="geometry" />
        </mxCell>
        <mxCell id="bxZLJlHsnHyx1dcmcsCU-275" value="" style="endArrow=none;html=1;rounded=0;fontSize=12;startSize=8;endSize=8;curved=1;" parent="1" edge="1">
          <mxGeometry width="50" height="50" relative="1" as="geometry">
            <mxPoint x="111.44" y="-237" as="sourcePoint" />
            <mxPoint x="214.44" y="-237" as="targetPoint" />
          </mxGeometry>
        </mxCell>
        <mxCell id="bxZLJlHsnHyx1dcmcsCU-276" value="" style="endArrow=classic;html=1;rounded=0;fontSize=12;startSize=8;endSize=8;curved=1;entryX=0;entryY=0.75;entryDx=0;entryDy=0;entryPerimeter=0;" parent="1" source="bxZLJlHsnHyx1dcmcsCU-278" target="zsQn-SWkJ-bh9JfCaFK9-19" edge="1">
          <mxGeometry width="50" height="50" relative="1" as="geometry">
            <mxPoint x="210.44" y="-236" as="sourcePoint" />
            <mxPoint x="212.44" y="-138" as="targetPoint" />
          </mxGeometry>
        </mxCell>
        <mxCell id="bxZLJlHsnHyx1dcmcsCU-277" value="" style="endArrow=classic;html=1;rounded=0;fontSize=12;startSize=8;endSize=8;curved=1;" parent="1" target="bxZLJlHsnHyx1dcmcsCU-278" edge="1">
          <mxGeometry width="50" height="50" relative="1" as="geometry">
            <mxPoint x="210.44" y="-236" as="sourcePoint" />
            <mxPoint x="212.44" y="-138" as="targetPoint" />
          </mxGeometry>
        </mxCell>
        <mxCell id="bxZLJlHsnHyx1dcmcsCU-278" value="1st digit" style="text;strokeColor=none;fillColor=none;html=1;align=center;verticalAlign=middle;whiteSpace=wrap;rounded=0;fontSize=12;" parent="1" vertex="1">
          <mxGeometry x="175.94" y="-214.5" width="73" height="28" as="geometry" />
        </mxCell>
        <mxCell id="bxZLJlHsnHyx1dcmcsCU-280" value="&lt;font style=&quot;font-size: 12px;&quot;&gt;2nd digit&lt;/font&gt;" style="text;strokeColor=none;fillColor=none;html=1;align=center;verticalAlign=middle;whiteSpace=wrap;rounded=0;fontSize=16;" parent="1" vertex="1">
          <mxGeometry x="83.44" y="-216" width="60" height="30" as="geometry" />
        </mxCell>
        <mxCell id="bxZLJlHsnHyx1dcmcsCU-281" value="" style="endArrow=none;html=1;rounded=0;fontSize=12;startSize=8;endSize=8;curved=1;" parent="1" edge="1">
          <mxGeometry width="50" height="50" relative="1" as="geometry">
            <mxPoint x="302" y="-375" as="sourcePoint" />
            <mxPoint x="721" y="-375" as="targetPoint" />
          </mxGeometry>
        </mxCell>
        <mxCell id="bxZLJlHsnHyx1dcmcsCU-282" value="" style="endArrow=none;html=1;rounded=0;fontSize=12;startSize=8;endSize=8;curved=1;" parent="1" edge="1">
          <mxGeometry width="50" height="50" relative="1" as="geometry">
            <mxPoint x="721" y="-329" as="sourcePoint" />
            <mxPoint x="721" y="-377" as="targetPoint" />
          </mxGeometry>
        </mxCell>
        <mxCell id="bxZLJlHsnHyx1dcmcsCU-283" value="" style="shape=trapezoid;perimeter=trapezoidPerimeter;whiteSpace=wrap;html=1;fixedSize=1;" parent="1" vertex="1">
          <mxGeometry x="687" y="34" width="163" height="49" as="geometry" />
        </mxCell>
        <mxCell id="bxZLJlHsnHyx1dcmcsCU-284" value="&lt;font style=&quot;font-size: 12px;&quot;&gt;2*1 MUX&lt;/font&gt;" style="text;strokeColor=none;fillColor=none;html=1;align=center;verticalAlign=middle;whiteSpace=wrap;rounded=0;fontSize=14;" parent="1" vertex="1">
          <mxGeometry x="738.5" y="27" width="59.5" height="28" as="geometry" />
        </mxCell>
        <mxCell id="bxZLJlHsnHyx1dcmcsCU-285" value="&lt;font style=&quot;font-size: 12px;&quot;&gt;1&lt;/font&gt;" style="text;strokeColor=none;fillColor=none;html=1;align=center;verticalAlign=middle;whiteSpace=wrap;rounded=0;fontSize=16;" parent="1" vertex="1">
          <mxGeometry x="688.5" y="53" width="60" height="30" as="geometry" />
        </mxCell>
        <mxCell id="bxZLJlHsnHyx1dcmcsCU-286" value="&lt;font style=&quot;font-size: 12px;&quot;&gt;0&lt;/font&gt;" style="text;strokeColor=none;fillColor=none;html=1;align=center;verticalAlign=middle;whiteSpace=wrap;rounded=0;fontSize=16;" parent="1" vertex="1">
          <mxGeometry x="784" y="53" width="60" height="30" as="geometry" />
        </mxCell>
        <mxCell id="bxZLJlHsnHyx1dcmcsCU-287" value="&lt;font style=&quot;font-size: 12px;&quot;&gt;Mod Counters&lt;/font&gt;" style="text;strokeColor=none;fillColor=none;html=1;align=center;verticalAlign=middle;whiteSpace=wrap;rounded=0;fontSize=16;" parent="1" vertex="1">
          <mxGeometry x="696" y="-51" width="95" height="33" as="geometry" />
        </mxCell>
        <mxCell id="bxZLJlHsnHyx1dcmcsCU-288" value="" style="endArrow=classic;html=1;rounded=0;fontSize=12;startSize=8;endSize=8;curved=1;" parent="1" edge="1">
          <mxGeometry width="50" height="50" relative="1" as="geometry">
            <mxPoint x="762" y="34" as="sourcePoint" />
            <mxPoint x="759" y="-23" as="targetPoint" />
          </mxGeometry>
        </mxCell>
        <mxCell id="bxZLJlHsnHyx1dcmcsCU-289" value="" style="shape=xor;whiteSpace=wrap;html=1;direction=west;" parent="1" vertex="1">
          <mxGeometry x="922" y="19.5" width="60" height="80" as="geometry" />
        </mxCell>
        <mxCell id="bxZLJlHsnHyx1dcmcsCU-290" value="" style="endArrow=classic;html=1;rounded=0;fontSize=12;startSize=8;endSize=8;curved=1;entryX=0.033;entryY=0.888;entryDx=0;entryDy=0;entryPerimeter=0;" parent="1" target="bxZLJlHsnHyx1dcmcsCU-289" edge="1">
          <mxGeometry width="50" height="50" relative="1" as="geometry">
            <mxPoint x="1074" y="28.5" as="sourcePoint" />
            <mxPoint x="1117" y="-18.5" as="targetPoint" />
          </mxGeometry>
        </mxCell>
        <mxCell id="bxZLJlHsnHyx1dcmcsCU-291" value="" style="endArrow=classic;html=1;rounded=0;fontSize=12;startSize=8;endSize=8;curved=1;entryX=0.067;entryY=0.1;entryDx=0;entryDy=0;entryPerimeter=0;" parent="1" target="bxZLJlHsnHyx1dcmcsCU-289" edge="1">
          <mxGeometry width="50" height="50" relative="1" as="geometry">
            <mxPoint x="1074" y="91.5" as="sourcePoint" />
            <mxPoint x="1117" y="45.5" as="targetPoint" />
          </mxGeometry>
        </mxCell>
        <mxCell id="bxZLJlHsnHyx1dcmcsCU-292" value="LD14" style="text;strokeColor=none;fillColor=none;html=1;align=center;verticalAlign=middle;whiteSpace=wrap;rounded=0;fontSize=16;" parent="1" vertex="1">
          <mxGeometry x="1062" y="14.5" width="60" height="30" as="geometry" />
        </mxCell>
        <mxCell id="bxZLJlHsnHyx1dcmcsCU-293" value="LD12" style="text;strokeColor=none;fillColor=none;html=1;align=center;verticalAlign=middle;whiteSpace=wrap;rounded=0;fontSize=16;" parent="1" vertex="1">
          <mxGeometry x="1065" y="75.5" width="60" height="30" as="geometry" />
        </mxCell>
        <mxCell id="bxZLJlHsnHyx1dcmcsCU-294" value="" style="endArrow=classic;html=1;rounded=0;fontSize=12;startSize=8;endSize=8;curved=1;entryX=1;entryY=0.25;entryDx=0;entryDy=0;" parent="1" target="bxZLJlHsnHyx1dcmcsCU-286" edge="1">
          <mxGeometry width="50" height="50" relative="1" as="geometry">
            <mxPoint x="922" y="59" as="sourcePoint" />
            <mxPoint x="972" y="9" as="targetPoint" />
          </mxGeometry>
        </mxCell>
        <mxCell id="bxZLJlHsnHyx1dcmcsCU-295" value="3&amp;amp;10" style="text;strokeColor=none;fillColor=none;html=1;align=center;verticalAlign=middle;whiteSpace=wrap;rounded=0;fontSize=16;" parent="1" vertex="1">
          <mxGeometry x="689" y="98" width="60" height="30" as="geometry" />
        </mxCell>
        <mxCell id="bxZLJlHsnHyx1dcmcsCU-296" value="" style="endArrow=none;html=1;rounded=0;fontSize=12;startSize=8;endSize=8;curved=1;" parent="1" source="bxZLJlHsnHyx1dcmcsCU-295" edge="1">
          <mxGeometry width="50" height="50" relative="1" as="geometry">
            <mxPoint x="671" y="133" as="sourcePoint" />
            <mxPoint x="721" y="83" as="targetPoint" />
          </mxGeometry>
        </mxCell>
        <mxCell id="bxZLJlHsnHyx1dcmcsCU-297" value="6&amp;amp;10" style="text;strokeColor=none;fillColor=none;html=1;align=center;verticalAlign=middle;whiteSpace=wrap;rounded=0;fontSize=16;" parent="1" vertex="1">
          <mxGeometry x="789" y="98" width="60" height="30" as="geometry" />
        </mxCell>
        <mxCell id="bxZLJlHsnHyx1dcmcsCU-298" value="" style="endArrow=none;html=1;rounded=0;fontSize=12;startSize=8;endSize=8;curved=1;exitX=0.5;exitY=0;exitDx=0;exitDy=0;" parent="1" source="bxZLJlHsnHyx1dcmcsCU-297" edge="1">
          <mxGeometry width="50" height="50" relative="1" as="geometry">
            <mxPoint x="767" y="132" as="sourcePoint" />
            <mxPoint x="817" y="82" as="targetPoint" />
          </mxGeometry>
        </mxCell>
        <mxCell id="bxZLJlHsnHyx1dcmcsCU-301" value="" style="endArrow=classic;html=1;rounded=0;fontSize=12;startSize=8;endSize=8;curved=1;" parent="1" edge="1">
          <mxGeometry width="50" height="50" relative="1" as="geometry">
            <mxPoint x="641" y="-88" as="sourcePoint" />
            <mxPoint x="705" y="-88" as="targetPoint" />
          </mxGeometry>
        </mxCell>
        <mxCell id="bxZLJlHsnHyx1dcmcsCU-308" value="" style="endArrow=classic;html=1;rounded=0;fontSize=12;startSize=8;endSize=8;curved=1;" parent="1" edge="1">
          <mxGeometry width="50" height="50" relative="1" as="geometry">
            <mxPoint x="820" y="-598" as="sourcePoint" />
            <mxPoint x="790" y="-598" as="targetPoint" />
          </mxGeometry>
        </mxCell>
        <mxCell id="bxZLJlHsnHyx1dcmcsCU-309" value="&lt;font style=&quot;font-size: 12px;&quot;&gt;Load&lt;/font&gt;" style="text;strokeColor=none;fillColor=none;html=1;align=center;verticalAlign=middle;whiteSpace=wrap;rounded=0;fontSize=16;" parent="1" vertex="1">
          <mxGeometry x="-369" y="-714" width="30" height="12" as="geometry" />
        </mxCell>
        <mxCell id="Bd1AdrfHuD4JfWhUVgqI-1" value="" style="endArrow=classic;html=1;rounded=0;exitX=1;exitY=0.5;exitDx=0;exitDy=0;" parent="1" source="bxZLJlHsnHyx1dcmcsCU-1" edge="1">
          <mxGeometry width="50" height="50" relative="1" as="geometry">
            <mxPoint x="-280" y="-470" as="sourcePoint" />
            <mxPoint x="-370" y="-666" as="targetPoint" />
          </mxGeometry>
        </mxCell>
        <mxCell id="Bd1AdrfHuD4JfWhUVgqI-2" value="" style="endArrow=classic;html=1;rounded=0;exitX=0.114;exitY=0.998;exitDx=0;exitDy=0;entryX=0.5;entryY=0;entryDx=0;entryDy=0;exitPerimeter=0;" parent="1" source="bxZLJlHsnHyx1dcmcsCU-188" target="bxZLJlHsnHyx1dcmcsCU-5" edge="1">
          <mxGeometry width="50" height="50" relative="1" as="geometry">
            <mxPoint x="-440" y="-398" as="sourcePoint" />
            <mxPoint x="-390" y="-448" as="targetPoint" />
          </mxGeometry>
        </mxCell>
        <mxCell id="Bd1AdrfHuD4JfWhUVgqI-7" value="" style="endArrow=classic;html=1;rounded=0;entryX=1;entryY=0.25;entryDx=0;entryDy=0;" parent="1" target="bxZLJlHsnHyx1dcmcsCU-9" edge="1">
          <mxGeometry width="50" height="50" relative="1" as="geometry">
            <mxPoint x="40" y="-730" as="sourcePoint" />
            <mxPoint x="10" y="-470" as="targetPoint" />
            <Array as="points">
              <mxPoint x="40" y="-700" />
            </Array>
          </mxGeometry>
        </mxCell>
        <mxCell id="Bd1AdrfHuD4JfWhUVgqI-8" value="" style="endArrow=none;html=1;rounded=0;" parent="1" edge="1">
          <mxGeometry width="50" height="50" relative="1" as="geometry">
            <mxPoint x="40" y="-730" as="sourcePoint" />
            <mxPoint x="50" y="-742" as="targetPoint" />
            <Array as="points">
              <mxPoint x="40" y="-742" />
            </Array>
          </mxGeometry>
        </mxCell>
        <mxCell id="Bd1AdrfHuD4JfWhUVgqI-10" value="" style="endArrow=classic;html=1;rounded=0;entryX=1.018;entryY=0.097;entryDx=0;entryDy=0;entryPerimeter=0;" parent="1" target="bxZLJlHsnHyx1dcmcsCU-9" edge="1">
          <mxGeometry width="50" height="50" relative="1" as="geometry">
            <mxPoint x="36" y="-755" as="sourcePoint" />
            <mxPoint x="-240" y="-800" as="targetPoint" />
            <Array as="points">
              <mxPoint x="36" y="-710" />
            </Array>
          </mxGeometry>
        </mxCell>
        <mxCell id="Bd1AdrfHuD4JfWhUVgqI-16" value="" style="endArrow=classic;html=1;rounded=0;entryX=0;entryY=0.75;entryDx=0;entryDy=0;" parent="1" target="bxZLJlHsnHyx1dcmcsCU-309" edge="1">
          <mxGeometry width="50" height="50" relative="1" as="geometry">
            <mxPoint x="-420" y="-705" as="sourcePoint" />
            <mxPoint x="-400" y="-750" as="targetPoint" />
          </mxGeometry>
        </mxCell>
        <mxCell id="Bd1AdrfHuD4JfWhUVgqI-17" value="&lt;font style=&quot;font-size: 8px;&quot;&gt;Done&lt;/font&gt;" style="text;html=1;align=center;verticalAlign=middle;resizable=0;points=[];autosize=1;strokeColor=none;fillColor=none;" parent="1" vertex="1">
          <mxGeometry x="-420" y="-727" width="40" height="30" as="geometry" />
        </mxCell>
        <mxCell id="Bd1AdrfHuD4JfWhUVgqI-18" value="200 Hz&amp;nbsp;&amp;nbsp;" style="text;html=1;align=center;verticalAlign=middle;resizable=0;points=[];autosize=1;strokeColor=none;fillColor=none;" parent="1" vertex="1">
          <mxGeometry x="-612" y="-493" width="70" height="30" as="geometry" />
        </mxCell>
        <mxCell id="Bd1AdrfHuD4JfWhUVgqI-19" value="" style="endArrow=classic;html=1;rounded=0;exitX=0.5;exitY=1;exitDx=0;exitDy=0;entryX=0.5;entryY=0;entryDx=0;entryDy=0;" parent="1" source="bxZLJlHsnHyx1dcmcsCU-5" target="bxZLJlHsnHyx1dcmcsCU-3" edge="1">
          <mxGeometry width="50" height="50" relative="1" as="geometry">
            <mxPoint x="-479.5" y="-358" as="sourcePoint" />
            <mxPoint x="-429.5" y="-408" as="targetPoint" />
          </mxGeometry>
        </mxCell>
        <mxCell id="Bd1AdrfHuD4JfWhUVgqI-20" value="" style="endArrow=none;html=1;rounded=0;" parent="1" edge="1">
          <mxGeometry width="50" height="50" relative="1" as="geometry">
            <mxPoint x="-620" y="-300.25" as="sourcePoint" />
            <mxPoint x="-600" y="-320.25" as="targetPoint" />
          </mxGeometry>
        </mxCell>
        <mxCell id="Bd1AdrfHuD4JfWhUVgqI-21" value="&lt;font style=&quot;font-size: 10px;&quot;&gt;2&lt;/font&gt;" style="text;html=1;align=center;verticalAlign=middle;resizable=0;points=[];autosize=1;strokeColor=none;fillColor=none;" parent="1" vertex="1">
          <mxGeometry x="-630.5" y="-329" width="30" height="30" as="geometry" />
        </mxCell>
        <mxCell id="Bd1AdrfHuD4JfWhUVgqI-31" value="" style="endArrow=classic;html=1;rounded=0;entryX=0;entryY=0.5;entryDx=0;entryDy=0;exitX=1;exitY=0.5;exitDx=0;exitDy=0;" parent="1" source="bxZLJlHsnHyx1dcmcsCU-3" target="bxZLJlHsnHyx1dcmcsCU-7" edge="1">
          <mxGeometry width="50" height="50" relative="1" as="geometry">
            <mxPoint x="-636" y="-342" as="sourcePoint" />
            <mxPoint x="-636" y="-269" as="targetPoint" />
          </mxGeometry>
        </mxCell>
        <mxCell id="Bd1AdrfHuD4JfWhUVgqI-32" value="" style="endArrow=none;html=1;rounded=0;fontSize=12;startSize=8;endSize=8;curved=1;" parent="1" edge="1">
          <mxGeometry width="50" height="50" relative="1" as="geometry">
            <mxPoint x="-527.5" y="-233.5" as="sourcePoint" />
            <mxPoint x="-499.5" y="-258.5" as="targetPoint" />
          </mxGeometry>
        </mxCell>
        <mxCell id="Bd1AdrfHuD4JfWhUVgqI-33" value="4" style="text;strokeColor=none;fillColor=none;html=1;align=center;verticalAlign=middle;whiteSpace=wrap;rounded=0;fontSize=12;" parent="1" vertex="1">
          <mxGeometry x="-535.5" y="-261.5" width="21.56" height="18" as="geometry" />
        </mxCell>
        <mxCell id="Bd1AdrfHuD4JfWhUVgqI-36" value="" style="endArrow=none;html=1;rounded=0;" parent="1" edge="1">
          <mxGeometry width="50" height="50" relative="1" as="geometry">
            <mxPoint x="-180" y="-620" as="sourcePoint" />
            <mxPoint x="250" y="-347" as="targetPoint" />
            <Array as="points">
              <mxPoint x="-20" y="-620" />
              <mxPoint x="-20" y="-347" />
            </Array>
          </mxGeometry>
        </mxCell>
        <mxCell id="Bd1AdrfHuD4JfWhUVgqI-37" value="" style="endArrow=none;html=1;rounded=0;" parent="1" edge="1">
          <mxGeometry width="50" height="50" relative="1" as="geometry">
            <mxPoint x="-40" y="-330" as="sourcePoint" />
            <mxPoint x="-240" y="-600" as="targetPoint" />
            <Array as="points">
              <mxPoint x="-40" y="-600" />
            </Array>
          </mxGeometry>
        </mxCell>
        <mxCell id="Bd1AdrfHuD4JfWhUVgqI-38" value="" style="endArrow=none;html=1;rounded=0;" parent="1" edge="1">
          <mxGeometry width="50" height="50" relative="1" as="geometry">
            <mxPoint x="-10" y="-300" as="sourcePoint" />
            <mxPoint x="-320" y="-590" as="targetPoint" />
            <Array as="points">
              <mxPoint x="-66" y="-300" />
              <mxPoint x="-66" y="-590" />
            </Array>
          </mxGeometry>
        </mxCell>
        <mxCell id="Bd1AdrfHuD4JfWhUVgqI-40" value="" style="endArrow=none;html=1;rounded=0;" parent="1" edge="1">
          <mxGeometry width="50" height="50" relative="1" as="geometry">
            <mxPoint x="-350" y="-580" as="sourcePoint" />
            <mxPoint x="-120" y="-240" as="targetPoint" />
            <Array as="points">
              <mxPoint x="-94" y="-580" />
              <mxPoint x="-94" y="-240" />
            </Array>
          </mxGeometry>
        </mxCell>
        <mxCell id="Bd1AdrfHuD4JfWhUVgqI-47" value="&lt;font style=&quot;font-size: 12px;&quot;&gt;1Hz&amp;nbsp;&lt;/font&gt;" style="text;html=1;align=center;verticalAlign=middle;resizable=0;points=[];autosize=1;strokeColor=none;fillColor=none;" parent="1" vertex="1">
          <mxGeometry x="644" y="-114" width="50" height="30" as="geometry" />
        </mxCell>
        <mxCell id="zsQn-SWkJ-bh9JfCaFK9-1" value="" style="triangle;whiteSpace=wrap;html=1;direction=south;" parent="1" vertex="1">
          <mxGeometry x="-39.56" y="42" width="80" height="60" as="geometry" />
        </mxCell>
        <mxCell id="zsQn-SWkJ-bh9JfCaFK9-2" value="" style="ellipse;whiteSpace=wrap;html=1;aspect=fixed;" parent="1" vertex="1">
          <mxGeometry x="-4.060000000000002" y="101" width="9" height="9" as="geometry" />
        </mxCell>
        <mxCell id="zsQn-SWkJ-bh9JfCaFK9-3" value="" style="triangle;whiteSpace=wrap;html=1;direction=south;" parent="1" vertex="1">
          <mxGeometry x="55.94" y="41" width="80" height="60" as="geometry" />
        </mxCell>
        <mxCell id="zsQn-SWkJ-bh9JfCaFK9-11" style="edgeStyle=orthogonalEdgeStyle;rounded=0;orthogonalLoop=1;jettySize=auto;html=1;exitX=0.5;exitY=1;exitDx=0;exitDy=0;" parent="1" source="zsQn-SWkJ-bh9JfCaFK9-4" edge="1">
          <mxGeometry relative="1" as="geometry">
            <mxPoint x="95.88444444444434" y="171" as="targetPoint" />
          </mxGeometry>
        </mxCell>
        <mxCell id="zsQn-SWkJ-bh9JfCaFK9-4" value="" style="ellipse;whiteSpace=wrap;html=1;aspect=fixed;" parent="1" vertex="1">
          <mxGeometry x="91.44" y="101" width="9" height="9" as="geometry" />
        </mxCell>
        <mxCell id="zsQn-SWkJ-bh9JfCaFK9-6" value="" style="triangle;whiteSpace=wrap;html=1;direction=south;" parent="1" vertex="1">
          <mxGeometry x="182.94" y="41" width="80" height="60" as="geometry" />
        </mxCell>
        <mxCell id="zsQn-SWkJ-bh9JfCaFK9-7" value="" style="ellipse;whiteSpace=wrap;html=1;aspect=fixed;" parent="1" vertex="1">
          <mxGeometry x="218.44" y="100" width="9" height="9" as="geometry" />
        </mxCell>
        <mxCell id="zsQn-SWkJ-bh9JfCaFK9-10" style="edgeStyle=orthogonalEdgeStyle;rounded=0;orthogonalLoop=1;jettySize=auto;html=1;exitX=0.5;exitY=1;exitDx=0;exitDy=0;entryX=0.008;entryY=0.025;entryDx=0;entryDy=0;entryPerimeter=0;" parent="1" source="zsQn-SWkJ-bh9JfCaFK9-7" edge="1">
          <mxGeometry relative="1" as="geometry">
            <mxPoint x="223.315" y="172.6400000000001" as="targetPoint" />
          </mxGeometry>
        </mxCell>
        <mxCell id="zsQn-SWkJ-bh9JfCaFK9-12" style="edgeStyle=orthogonalEdgeStyle;rounded=0;orthogonalLoop=1;jettySize=auto;html=1;exitX=0.5;exitY=1;exitDx=0;exitDy=0;entryX=0.008;entryY=0.646;entryDx=0;entryDy=0;entryPerimeter=0;" parent="1" source="zsQn-SWkJ-bh9JfCaFK9-2" edge="1">
          <mxGeometry relative="1" as="geometry">
            <mxPoint x="-0.3499999999999659" y="172.6400000000001" as="targetPoint" />
          </mxGeometry>
        </mxCell>
        <mxCell id="zsQn-SWkJ-bh9JfCaFK9-13" style="edgeStyle=orthogonalEdgeStyle;rounded=0;orthogonalLoop=1;jettySize=auto;html=1;exitX=0.5;exitY=1;exitDx=0;exitDy=0;entryX=0.014;entryY=0.919;entryDx=0;entryDy=0;entryPerimeter=0;" parent="1" source="bxZLJlHsnHyx1dcmcsCU-145" edge="1">
          <mxGeometry relative="1" as="geometry">
            <mxPoint x="-94.99500000000018" y="173.12000000000012" as="targetPoint" />
          </mxGeometry>
        </mxCell>
        <mxCell id="zsQn-SWkJ-bh9JfCaFK9-25" style="edgeStyle=orthogonalEdgeStyle;rounded=0;orthogonalLoop=1;jettySize=auto;html=1;exitX=1;exitY=0.5;exitDx=0;exitDy=0;exitPerimeter=0;entryX=0;entryY=0.5;entryDx=0;entryDy=0;" parent="1" source="zsQn-SWkJ-bh9JfCaFK9-14" target="bxZLJlHsnHyx1dcmcsCU-144" edge="1">
          <mxGeometry relative="1" as="geometry" />
        </mxCell>
        <mxCell id="zsQn-SWkJ-bh9JfCaFK9-14" value="" style="verticalLabelPosition=bottom;shadow=0;dashed=0;align=center;html=1;verticalAlign=top;shape=mxgraph.electrical.logic_gates.logic_gate;operation=xor;direction=south;" parent="1" vertex="1">
          <mxGeometry x="-128.56" y="-106" width="68" height="96" as="geometry" />
        </mxCell>
        <mxCell id="zsQn-SWkJ-bh9JfCaFK9-17" value="" style="verticalLabelPosition=bottom;shadow=0;dashed=0;align=center;html=1;verticalAlign=top;shape=mxgraph.electrical.logic_gates.logic_gate;operation=xor;direction=south;" parent="1" vertex="1">
          <mxGeometry x="-33.56" y="-101.5" width="68" height="96" as="geometry" />
        </mxCell>
        <mxCell id="zsQn-SWkJ-bh9JfCaFK9-23" style="edgeStyle=orthogonalEdgeStyle;rounded=0;orthogonalLoop=1;jettySize=auto;html=1;exitX=1;exitY=0.5;exitDx=0;exitDy=0;exitPerimeter=0;entryX=0;entryY=0.5;entryDx=0;entryDy=0;" parent="1" source="zsQn-SWkJ-bh9JfCaFK9-18" target="zsQn-SWkJ-bh9JfCaFK9-3" edge="1">
          <mxGeometry relative="1" as="geometry" />
        </mxCell>
        <mxCell id="zsQn-SWkJ-bh9JfCaFK9-18" value="" style="verticalLabelPosition=bottom;shadow=0;dashed=0;align=center;html=1;verticalAlign=top;shape=mxgraph.electrical.logic_gates.logic_gate;operation=xor;direction=south;" parent="1" vertex="1">
          <mxGeometry x="60.94" y="-100" width="68" height="96" as="geometry" />
        </mxCell>
        <mxCell id="zsQn-SWkJ-bh9JfCaFK9-22" style="edgeStyle=orthogonalEdgeStyle;rounded=0;orthogonalLoop=1;jettySize=auto;html=1;exitX=1;exitY=0.5;exitDx=0;exitDy=0;exitPerimeter=0;entryX=0;entryY=0.5;entryDx=0;entryDy=0;" parent="1" source="zsQn-SWkJ-bh9JfCaFK9-19" target="zsQn-SWkJ-bh9JfCaFK9-6" edge="1">
          <mxGeometry relative="1" as="geometry" />
        </mxCell>
        <mxCell id="zsQn-SWkJ-bh9JfCaFK9-19" value="" style="verticalLabelPosition=bottom;shadow=0;dashed=0;align=center;html=1;verticalAlign=top;shape=mxgraph.electrical.logic_gates.logic_gate;operation=xor;direction=south;" parent="1" vertex="1">
          <mxGeometry x="188.94" y="-100" width="68" height="96" as="geometry" />
        </mxCell>
        <mxCell id="zsQn-SWkJ-bh9JfCaFK9-24" style="edgeStyle=orthogonalEdgeStyle;rounded=0;orthogonalLoop=1;jettySize=auto;html=1;exitX=1;exitY=0.5;exitDx=0;exitDy=0;exitPerimeter=0;entryX=0;entryY=0.5;entryDx=0;entryDy=0;" parent="1" source="zsQn-SWkJ-bh9JfCaFK9-17" target="zsQn-SWkJ-bh9JfCaFK9-1" edge="1">
          <mxGeometry relative="1" as="geometry" />
        </mxCell>
        <mxCell id="zsQn-SWkJ-bh9JfCaFK9-28" value="" style="endArrow=classic;html=1;rounded=0;" parent="1" edge="1">
          <mxGeometry width="50" height="50" relative="1" as="geometry">
            <mxPoint x="244" y="-350" as="sourcePoint" />
            <mxPoint x="238.44" y="-97" as="targetPoint" />
          </mxGeometry>
        </mxCell>
        <mxCell id="zsQn-SWkJ-bh9JfCaFK9-30" value="&lt;font style=&quot;font-size: 12px;&quot;&gt;Alarm_Signal&lt;/font&gt;" style="text;strokeColor=none;fillColor=none;html=1;align=center;verticalAlign=middle;whiteSpace=wrap;rounded=0;fontSize=16;" parent="1" vertex="1">
          <mxGeometry x="-738" y="-35.5" width="58" height="35.5" as="geometry" />
        </mxCell>
        <mxCell id="zsQn-SWkJ-bh9JfCaFK9-31" value="&lt;font style=&quot;font-size: 12px;&quot;&gt;BTND&lt;/font&gt;" style="text;strokeColor=none;fillColor=none;html=1;align=center;verticalAlign=middle;whiteSpace=wrap;rounded=0;fontSize=16;" parent="1" vertex="1">
          <mxGeometry x="-726" y="-54.629999999999995" width="60" height="30" as="geometry" />
        </mxCell>
        <mxCell id="zsQn-SWkJ-bh9JfCaFK9-32" value="&lt;font style=&quot;font-size: 12px;&quot;&gt;BTNU&lt;/font&gt;" style="text;strokeColor=none;fillColor=none;html=1;align=center;verticalAlign=middle;whiteSpace=wrap;rounded=0;fontSize=16;" parent="1" vertex="1">
          <mxGeometry x="-726" y="-79.38" width="60" height="30" as="geometry" />
        </mxCell>
        <mxCell id="zsQn-SWkJ-bh9JfCaFK9-33" value="&lt;font style=&quot;font-size: 12px;&quot;&gt;BTNL&lt;/font&gt;" style="text;strokeColor=none;fillColor=none;html=1;align=center;verticalAlign=middle;whiteSpace=wrap;rounded=0;fontSize=16;" parent="1" vertex="1">
          <mxGeometry x="-726" y="-111.63" width="60" height="30" as="geometry" />
        </mxCell>
        <mxCell id="zsQn-SWkJ-bh9JfCaFK9-34" value="&lt;font style=&quot;font-size: 12px;&quot;&gt;BTNR&lt;/font&gt;" style="text;strokeColor=none;fillColor=none;html=1;align=center;verticalAlign=middle;whiteSpace=wrap;rounded=0;fontSize=16;" parent="1" vertex="1">
          <mxGeometry x="-722" y="-141.63" width="60" height="30" as="geometry" />
        </mxCell>
        <mxCell id="zsQn-SWkJ-bh9JfCaFK9-35" value="&lt;font style=&quot;font-size: 12px;&quot;&gt;BTNC&lt;/font&gt;" style="text;strokeColor=none;fillColor=none;html=1;align=center;verticalAlign=middle;whiteSpace=wrap;rounded=0;fontSize=16;" parent="1" vertex="1">
          <mxGeometry x="-726" y="-170.88" width="60" height="30" as="geometry" />
        </mxCell>
        <mxCell id="oKbmGCNmtIYVetC7zHaL-14" value="" style="endArrow=classic;html=1;rounded=0;fontSize=12;startSize=8;endSize=8;curved=1;entryX=1;entryY=0.5;entryDx=0;entryDy=0;" edge="1" parent="1" target="bxZLJlHsnHyx1dcmcsCU-8">
          <mxGeometry width="50" height="50" relative="1" as="geometry">
            <mxPoint x="-610" y="-450" as="sourcePoint" />
            <mxPoint x="-560" y="-500" as="targetPoint" />
          </mxGeometry>
        </mxCell>
        <mxCell id="oKbmGCNmtIYVetC7zHaL-15" value="" style="endArrow=classic;html=1;rounded=0;fontSize=12;startSize=8;endSize=8;curved=1;" edge="1" parent="1">
          <mxGeometry width="50" height="50" relative="1" as="geometry">
            <mxPoint x="-280" y="-460" as="sourcePoint" />
            <mxPoint x="-280" y="-390" as="targetPoint" />
          </mxGeometry>
        </mxCell>
        <mxCell id="oKbmGCNmtIYVetC7zHaL-16" value="" style="endArrow=none;html=1;rounded=0;fontSize=12;startSize=8;endSize=8;curved=1;" edge="1" parent="1">
          <mxGeometry width="50" height="50" relative="1" as="geometry">
            <mxPoint x="-290" y="-420" as="sourcePoint" />
            <mxPoint x="-270" y="-440" as="targetPoint" />
          </mxGeometry>
        </mxCell>
        <mxCell id="oKbmGCNmtIYVetC7zHaL-17" value="&lt;font style=&quot;font-size: 14px;&quot;&gt;4&lt;/font&gt;" style="text;strokeColor=none;fillColor=none;html=1;align=center;verticalAlign=middle;whiteSpace=wrap;rounded=0;fontSize=16;" vertex="1" parent="1">
          <mxGeometry x="-317.44" y="-450" width="60" height="30" as="geometry" />
        </mxCell>
        <mxCell id="oKbmGCNmtIYVetC7zHaL-18" value="" style="endArrow=classic;html=1;rounded=0;fontSize=12;startSize=8;endSize=8;curved=1;entryX=0.836;entryY=1.001;entryDx=0;entryDy=0;entryPerimeter=0;exitX=0.074;exitY=1.033;exitDx=0;exitDy=0;exitPerimeter=0;" edge="1" parent="1" source="bxZLJlHsnHyx1dcmcsCU-9" target="bxZLJlHsnHyx1dcmcsCU-8">
          <mxGeometry width="50" height="50" relative="1" as="geometry">
            <mxPoint x="-380" y="-580" as="sourcePoint" />
            <mxPoint x="-330" y="-630" as="targetPoint" />
          </mxGeometry>
        </mxCell>
        <mxCell id="oKbmGCNmtIYVetC7zHaL-19" value="" style="endArrow=classic;html=1;rounded=0;fontSize=12;startSize=8;endSize=8;curved=1;exitX=0.344;exitY=0.98;exitDx=0;exitDy=0;exitPerimeter=0;" edge="1" parent="1">
          <mxGeometry width="50" height="50" relative="1" as="geometry">
            <mxPoint x="-317.4440000000001" y="-651" as="sourcePoint" />
            <mxPoint x="-316.9" y="-519.72" as="targetPoint" />
          </mxGeometry>
        </mxCell>
        <mxCell id="oKbmGCNmtIYVetC7zHaL-20" value="" style="endArrow=classic;html=1;rounded=0;fontSize=12;startSize=8;endSize=8;curved=1;exitX=0.344;exitY=0.98;exitDx=0;exitDy=0;exitPerimeter=0;" edge="1" parent="1">
          <mxGeometry width="50" height="50" relative="1" as="geometry">
            <mxPoint x="-240" y="-650" as="sourcePoint" />
            <mxPoint x="-239" y="-519" as="targetPoint" />
          </mxGeometry>
        </mxCell>
        <mxCell id="oKbmGCNmtIYVetC7zHaL-21" value="" style="endArrow=classic;html=1;rounded=0;fontSize=12;startSize=8;endSize=8;curved=1;exitX=0.344;exitY=0.98;exitDx=0;exitDy=0;exitPerimeter=0;" edge="1" parent="1">
          <mxGeometry width="50" height="50" relative="1" as="geometry">
            <mxPoint x="-181.56" y="-648" as="sourcePoint" />
            <mxPoint x="-180.56" y="-517" as="targetPoint" />
          </mxGeometry>
        </mxCell>
        <mxCell id="oKbmGCNmtIYVetC7zHaL-23" value="&lt;font style=&quot;font-size: 12px;&quot;&gt;1st digit [3:0]&lt;/font&gt;" style="text;strokeColor=none;fillColor=none;html=1;align=center;verticalAlign=middle;whiteSpace=wrap;rounded=0;fontSize=16;" vertex="1" parent="1">
          <mxGeometry x="-181.56" y="-644.5" width="74" height="8" as="geometry" />
        </mxCell>
        <mxCell id="oKbmGCNmtIYVetC7zHaL-25" value="&lt;font style=&quot;font-size: 12px;&quot;&gt;2nd digit [7:4]&lt;/font&gt;" style="text;strokeColor=none;fillColor=none;html=1;align=center;verticalAlign=middle;whiteSpace=wrap;rounded=0;fontSize=16;" vertex="1" parent="1">
          <mxGeometry x="-244" y="-633" width="74" height="8" as="geometry" />
        </mxCell>
        <mxCell id="oKbmGCNmtIYVetC7zHaL-26" value="&lt;font style=&quot;font-size: 12px;&quot;&gt;3rd digit [11:8]&lt;/font&gt;" style="text;strokeColor=none;fillColor=none;html=1;align=center;verticalAlign=middle;whiteSpace=wrap;rounded=0;fontSize=16;" vertex="1" parent="1">
          <mxGeometry x="-321" y="-629" width="74" height="8" as="geometry" />
        </mxCell>
        <mxCell id="oKbmGCNmtIYVetC7zHaL-27" value="&lt;font style=&quot;font-size: 12px;&quot;&gt;4th digit [15:12]&lt;/font&gt;" style="text;strokeColor=none;fillColor=none;html=1;align=center;verticalAlign=middle;whiteSpace=wrap;rounded=0;fontSize=16;" vertex="1" parent="1">
          <mxGeometry x="-416" y="-636.5" width="74" height="8" as="geometry" />
        </mxCell>
        <mxCell id="oKbmGCNmtIYVetC7zHaL-30" value="" style="endArrow=none;html=1;rounded=0;fontSize=12;startSize=8;endSize=8;curved=1;" edge="1" parent="1">
          <mxGeometry width="50" height="50" relative="1" as="geometry">
            <mxPoint x="40" y="290" as="sourcePoint" />
            <mxPoint x="40" y="250" as="targetPoint" />
          </mxGeometry>
        </mxCell>
        <mxCell id="oKbmGCNmtIYVetC7zHaL-43" value="" style="whiteSpace=wrap;html=1;aspect=fixed;" vertex="1" parent="1">
          <mxGeometry x="-509.30999999999995" y="27" width="359" height="359" as="geometry" />
        </mxCell>
        <mxCell id="oKbmGCNmtIYVetC7zHaL-44" value="Control Unit" style="text;strokeColor=none;fillColor=none;html=1;align=center;verticalAlign=middle;whiteSpace=wrap;rounded=0;fontSize=20;" vertex="1" parent="1">
          <mxGeometry x="-359.81" y="182" width="60" height="30" as="geometry" />
        </mxCell>
        <mxCell id="oKbmGCNmtIYVetC7zHaL-45" value="Push Button Detector" style="whiteSpace=wrap;html=1;aspect=fixed;" vertex="1" parent="1">
          <mxGeometry x="-506.21999999999997" y="466" width="54" height="54" as="geometry" />
        </mxCell>
        <mxCell id="oKbmGCNmtIYVetC7zHaL-46" value="Push Button Detector" style="whiteSpace=wrap;html=1;aspect=fixed;" vertex="1" parent="1">
          <mxGeometry x="-425" y="466" width="54" height="54" as="geometry" />
        </mxCell>
        <mxCell id="oKbmGCNmtIYVetC7zHaL-47" value="Push Button Detector" style="whiteSpace=wrap;html=1;aspect=fixed;" vertex="1" parent="1">
          <mxGeometry x="-326.56" y="450" width="54" height="54" as="geometry" />
        </mxCell>
        <mxCell id="oKbmGCNmtIYVetC7zHaL-48" value="Push Button Detector" style="whiteSpace=wrap;html=1;aspect=fixed;" vertex="1" parent="1">
          <mxGeometry x="-248" y="480" width="54" height="54" as="geometry" />
        </mxCell>
        <mxCell id="oKbmGCNmtIYVetC7zHaL-49" value="Push Button Detector" style="whiteSpace=wrap;html=1;aspect=fixed;" vertex="1" parent="1">
          <mxGeometry x="-162.44" y="475" width="54" height="54" as="geometry" />
        </mxCell>
        <mxCell id="oKbmGCNmtIYVetC7zHaL-50" value="" style="endArrow=classic;html=1;rounded=0;fontSize=12;startSize=8;endSize=8;curved=1;entryX=0.944;entryY=1.004;entryDx=0;entryDy=0;entryPerimeter=0;" edge="1" parent="1" target="oKbmGCNmtIYVetC7zHaL-43">
          <mxGeometry width="50" height="50" relative="1" as="geometry">
            <mxPoint x="-140" y="480" as="sourcePoint" />
            <mxPoint x="-51.31" y="413" as="targetPoint" />
          </mxGeometry>
        </mxCell>
        <mxCell id="oKbmGCNmtIYVetC7zHaL-51" value="" style="endArrow=classic;html=1;rounded=0;fontSize=12;startSize=8;endSize=8;curved=1;entryX=0.73;entryY=1.001;entryDx=0;entryDy=0;entryPerimeter=0;" edge="1" parent="1" target="oKbmGCNmtIYVetC7zHaL-43">
          <mxGeometry width="50" height="50" relative="1" as="geometry">
            <mxPoint x="-230" y="490" as="sourcePoint" />
            <mxPoint x="-141.31" y="413" as="targetPoint" />
          </mxGeometry>
        </mxCell>
        <mxCell id="oKbmGCNmtIYVetC7zHaL-52" value="" style="endArrow=classic;html=1;rounded=0;fontSize=12;startSize=8;endSize=8;curved=1;entryX=0.547;entryY=1.001;entryDx=0;entryDy=0;entryPerimeter=0;" edge="1" parent="1">
          <mxGeometry width="50" height="50" relative="1" as="geometry">
            <mxPoint x="-299" y="460" as="sourcePoint" />
            <mxPoint x="-299.17699999999974" y="386.43899999999985" as="targetPoint" />
          </mxGeometry>
        </mxCell>
        <mxCell id="oKbmGCNmtIYVetC7zHaL-53" value="" style="endArrow=classic;html=1;rounded=0;fontSize=12;startSize=8;endSize=8;curved=1;entryX=0.297;entryY=1.004;entryDx=0;entryDy=0;entryPerimeter=0;" edge="1" parent="1" target="oKbmGCNmtIYVetC7zHaL-43">
          <mxGeometry width="50" height="50" relative="1" as="geometry">
            <mxPoint x="-403" y="470" as="sourcePoint" />
            <mxPoint x="-335.31" y="413" as="targetPoint" />
          </mxGeometry>
        </mxCell>
        <mxCell id="oKbmGCNmtIYVetC7zHaL-54" value="" style="endArrow=classic;html=1;rounded=0;fontSize=12;startSize=8;endSize=8;curved=1;entryX=0.072;entryY=1.014;entryDx=0;entryDy=0;entryPerimeter=0;" edge="1" parent="1" target="oKbmGCNmtIYVetC7zHaL-43">
          <mxGeometry width="50" height="50" relative="1" as="geometry">
            <mxPoint x="-483" y="460" as="sourcePoint" />
            <mxPoint x="-432.31" y="417" as="targetPoint" />
          </mxGeometry>
        </mxCell>
        <mxCell id="oKbmGCNmtIYVetC7zHaL-55" value="BTNC" style="text;strokeColor=none;fillColor=none;html=1;align=center;verticalAlign=middle;whiteSpace=wrap;rounded=0;fontSize=16;" vertex="1" parent="1">
          <mxGeometry x="-162.44" y="529" width="60" height="30" as="geometry" />
        </mxCell>
        <mxCell id="oKbmGCNmtIYVetC7zHaL-56" value="BTNR" style="text;strokeColor=none;fillColor=none;html=1;align=center;verticalAlign=middle;whiteSpace=wrap;rounded=0;fontSize=16;" vertex="1" parent="1">
          <mxGeometry x="-509.30999999999995" y="529" width="60" height="30" as="geometry" />
        </mxCell>
        <mxCell id="oKbmGCNmtIYVetC7zHaL-57" value="BTNL" style="text;strokeColor=none;fillColor=none;html=1;align=center;verticalAlign=middle;whiteSpace=wrap;rounded=0;fontSize=16;" vertex="1" parent="1">
          <mxGeometry x="-430" y="520" width="60" height="30" as="geometry" />
        </mxCell>
        <mxCell id="oKbmGCNmtIYVetC7zHaL-58" value="BTNU" style="text;strokeColor=none;fillColor=none;html=1;align=center;verticalAlign=middle;whiteSpace=wrap;rounded=0;fontSize=16;" vertex="1" parent="1">
          <mxGeometry x="-332.56" y="504" width="60" height="30" as="geometry" />
        </mxCell>
        <mxCell id="oKbmGCNmtIYVetC7zHaL-59" value="BTND" style="text;strokeColor=none;fillColor=none;html=1;align=center;verticalAlign=middle;whiteSpace=wrap;rounded=0;fontSize=16;" vertex="1" parent="1">
          <mxGeometry x="-251" y="534" width="60" height="30" as="geometry" />
        </mxCell>
        <mxCell id="oKbmGCNmtIYVetC7zHaL-60" value="Done" style="text;strokeColor=none;fillColor=none;html=1;align=left;verticalAlign=middle;whiteSpace=wrap;rounded=0;fontSize=16;" vertex="1" parent="1">
          <mxGeometry x="-730" y="30.87" width="60" height="30" as="geometry" />
        </mxCell>
        <mxCell id="oKbmGCNmtIYVetC7zHaL-61" value="LDO" style="text;strokeColor=none;fillColor=none;html=1;align=left;verticalAlign=middle;whiteSpace=wrap;rounded=0;fontSize=16;" vertex="1" parent="1">
          <mxGeometry x="-738" y="66.75" width="60" height="30" as="geometry" />
        </mxCell>
        <mxCell id="oKbmGCNmtIYVetC7zHaL-62" value="LD14" style="text;strokeColor=none;fillColor=none;html=1;align=left;verticalAlign=middle;whiteSpace=wrap;rounded=0;fontSize=16;" vertex="1" parent="1">
          <mxGeometry x="-748.56" y="109" width="60" height="30" as="geometry" />
        </mxCell>
        <mxCell id="oKbmGCNmtIYVetC7zHaL-83" style="edgeStyle=none;curved=1;rounded=0;orthogonalLoop=1;jettySize=auto;html=1;exitX=0.25;exitY=0;exitDx=0;exitDy=0;fontSize=12;startSize=8;endSize=8;" edge="1" parent="1" source="oKbmGCNmtIYVetC7zHaL-63" target="oKbmGCNmtIYVetC7zHaL-62">
          <mxGeometry relative="1" as="geometry" />
        </mxCell>
        <mxCell id="oKbmGCNmtIYVetC7zHaL-63" value="LD15" style="text;strokeColor=none;fillColor=none;html=1;align=left;verticalAlign=middle;whiteSpace=wrap;rounded=0;fontSize=16;" vertex="1" parent="1">
          <mxGeometry x="-748.56" y="152" width="60" height="30" as="geometry" />
        </mxCell>
        <mxCell id="oKbmGCNmtIYVetC7zHaL-64" value="LD12" style="text;strokeColor=none;fillColor=none;html=1;align=left;verticalAlign=middle;whiteSpace=wrap;rounded=0;fontSize=16;" vertex="1" parent="1">
          <mxGeometry x="-748.56" y="199.5" width="60" height="30" as="geometry" />
        </mxCell>
        <mxCell id="oKbmGCNmtIYVetC7zHaL-65" value="LD13" style="text;strokeColor=none;fillColor=none;html=1;align=left;verticalAlign=middle;whiteSpace=wrap;rounded=0;fontSize=16;" vertex="1" parent="1">
          <mxGeometry x="-748.56" y="240.25" width="60" height="30" as="geometry" />
        </mxCell>
        <mxCell id="oKbmGCNmtIYVetC7zHaL-66" value="Inc" style="text;strokeColor=none;fillColor=none;html=1;align=left;verticalAlign=middle;whiteSpace=wrap;rounded=0;fontSize=16;" vertex="1" parent="1">
          <mxGeometry x="-609.56" y="297" width="60" height="30" as="geometry" />
        </mxCell>
        <mxCell id="oKbmGCNmtIYVetC7zHaL-67" value="Dec" style="text;strokeColor=none;fillColor=none;html=1;align=left;verticalAlign=middle;whiteSpace=wrap;rounded=0;fontSize=16;" vertex="1" parent="1">
          <mxGeometry x="-604.56" y="347" width="60" height="30" as="geometry" />
        </mxCell>
        <mxCell id="oKbmGCNmtIYVetC7zHaL-68" value="(Alarm Hour Adjust)" style="text;strokeColor=none;fillColor=none;html=1;align=left;verticalAlign=middle;whiteSpace=wrap;rounded=0;fontSize=16;" vertex="1" parent="1">
          <mxGeometry x="-703.56" y="119.5" width="154" height="5" as="geometry" />
        </mxCell>
        <mxCell id="oKbmGCNmtIYVetC7zHaL-69" value="(Alarm Minute Adjust)" style="text;strokeColor=none;fillColor=none;html=1;align=left;verticalAlign=middle;whiteSpace=wrap;rounded=0;fontSize=16;" vertex="1" parent="1">
          <mxGeometry x="-706.56" y="164.5" width="166" height="5" as="geometry" />
        </mxCell>
        <mxCell id="oKbmGCNmtIYVetC7zHaL-70" value="(Hour Setup Mode)" style="text;strokeColor=none;fillColor=none;html=1;align=left;verticalAlign=middle;whiteSpace=wrap;rounded=0;fontSize=16;" vertex="1" parent="1">
          <mxGeometry x="-706.56" y="212" width="154" height="5" as="geometry" />
        </mxCell>
        <mxCell id="oKbmGCNmtIYVetC7zHaL-71" value="(Minute Setup Mode)" style="text;strokeColor=none;fillColor=none;html=1;align=left;verticalAlign=middle;whiteSpace=wrap;rounded=0;fontSize=16;" vertex="1" parent="1">
          <mxGeometry x="-706.56" y="252.75" width="154" height="5" as="geometry" />
        </mxCell>
        <mxCell id="oKbmGCNmtIYVetC7zHaL-72" value="(Adjust Mode)" style="text;strokeColor=none;fillColor=none;html=1;align=left;verticalAlign=middle;whiteSpace=wrap;rounded=0;fontSize=16;" vertex="1" parent="1">
          <mxGeometry x="-697.06" y="69.25" width="109" height="25" as="geometry" />
        </mxCell>
        <mxCell id="oKbmGCNmtIYVetC7zHaL-73" value="" style="endArrow=classic;html=1;rounded=0;fontSize=12;startSize=8;endSize=8;curved=1;" edge="1" parent="1" target="oKbmGCNmtIYVetC7zHaL-67">
          <mxGeometry width="50" height="50" relative="1" as="geometry">
            <mxPoint x="-509.55999999999995" y="367" as="sourcePoint" />
            <mxPoint x="-459.55999999999995" y="317" as="targetPoint" />
          </mxGeometry>
        </mxCell>
        <mxCell id="oKbmGCNmtIYVetC7zHaL-74" value="" style="endArrow=classic;html=1;rounded=0;fontSize=12;startSize=8;endSize=8;curved=1;" edge="1" parent="1" target="oKbmGCNmtIYVetC7zHaL-66">
          <mxGeometry width="50" height="50" relative="1" as="geometry">
            <mxPoint x="-509.55999999999995" y="317" as="sourcePoint" />
            <mxPoint x="-459.55999999999995" y="267" as="targetPoint" />
          </mxGeometry>
        </mxCell>
        <mxCell id="oKbmGCNmtIYVetC7zHaL-75" value="" style="endArrow=classic;html=1;rounded=0;fontSize=12;startSize=8;endSize=8;curved=1;entryX=1;entryY=1;entryDx=0;entryDy=0;" edge="1" parent="1" target="oKbmGCNmtIYVetC7zHaL-71">
          <mxGeometry width="50" height="50" relative="1" as="geometry">
            <mxPoint x="-509.55999999999995" y="257" as="sourcePoint" />
            <mxPoint x="-459.55999999999995" y="207" as="targetPoint" />
          </mxGeometry>
        </mxCell>
        <mxCell id="oKbmGCNmtIYVetC7zHaL-76" value="" style="endArrow=classic;html=1;rounded=0;fontSize=12;startSize=8;endSize=8;curved=1;entryX=0.94;entryY=0.835;entryDx=0;entryDy=0;entryPerimeter=0;" edge="1" parent="1" target="oKbmGCNmtIYVetC7zHaL-70">
          <mxGeometry width="50" height="50" relative="1" as="geometry">
            <mxPoint x="-509.55999999999995" y="217" as="sourcePoint" />
            <mxPoint x="-459.55999999999995" y="167" as="targetPoint" />
          </mxGeometry>
        </mxCell>
        <mxCell id="oKbmGCNmtIYVetC7zHaL-77" value="" style="endArrow=classic;html=1;rounded=0;fontSize=12;startSize=8;endSize=8;curved=1;entryX=1;entryY=1;entryDx=0;entryDy=0;" edge="1" parent="1" target="oKbmGCNmtIYVetC7zHaL-69">
          <mxGeometry width="50" height="50" relative="1" as="geometry">
            <mxPoint x="-509.55999999999995" y="167" as="sourcePoint" />
            <mxPoint x="-459.55999999999995" y="117" as="targetPoint" />
          </mxGeometry>
        </mxCell>
        <mxCell id="oKbmGCNmtIYVetC7zHaL-78" value="" style="endArrow=classic;html=1;rounded=0;fontSize=12;startSize=8;endSize=8;curved=1;entryX=1;entryY=1;entryDx=0;entryDy=0;" edge="1" parent="1" target="oKbmGCNmtIYVetC7zHaL-68">
          <mxGeometry width="50" height="50" relative="1" as="geometry">
            <mxPoint x="-509.55999999999995" y="127" as="sourcePoint" />
            <mxPoint x="-459.55999999999995" y="77" as="targetPoint" />
          </mxGeometry>
        </mxCell>
        <mxCell id="oKbmGCNmtIYVetC7zHaL-79" value="" style="endArrow=classic;html=1;rounded=0;fontSize=12;startSize=8;endSize=8;curved=1;entryX=1;entryY=0.75;entryDx=0;entryDy=0;" edge="1" parent="1" target="oKbmGCNmtIYVetC7zHaL-72">
          <mxGeometry width="50" height="50" relative="1" as="geometry">
            <mxPoint x="-509.55999999999995" y="87" as="sourcePoint" />
            <mxPoint x="-459.55999999999995" y="37.00000000000001" as="targetPoint" />
          </mxGeometry>
        </mxCell>
        <mxCell id="oKbmGCNmtIYVetC7zHaL-80" value="" style="endArrow=classic;html=1;rounded=0;fontSize=12;startSize=8;endSize=8;curved=1;entryX=1;entryY=0.75;entryDx=0;entryDy=0;" edge="1" parent="1" target="oKbmGCNmtIYVetC7zHaL-60">
          <mxGeometry width="50" height="50" relative="1" as="geometry">
            <mxPoint x="-509.55999999999995" y="47.00000000000001" as="sourcePoint" />
            <mxPoint x="-459.55999999999995" y="-2.999999999999999" as="targetPoint" />
          </mxGeometry>
        </mxCell>
        <mxCell id="oKbmGCNmtIYVetC7zHaL-82" value="" style="endArrow=classic;html=1;rounded=0;fontSize=12;startSize=8;endSize=8;curved=1;entryX=0.996;entryY=0.722;entryDx=0;entryDy=0;entryPerimeter=0;" edge="1" parent="1" target="oKbmGCNmtIYVetC7zHaL-43">
          <mxGeometry width="50" height="50" relative="1" as="geometry">
            <mxPoint x="40" y="290" as="sourcePoint" />
            <mxPoint x="90" y="240" as="targetPoint" />
          </mxGeometry>
        </mxCell>
        <mxCell id="oKbmGCNmtIYVetC7zHaL-87" style="edgeStyle=none;curved=1;rounded=0;orthogonalLoop=1;jettySize=auto;html=1;exitX=0.5;exitY=1;exitDx=0;exitDy=0;fontSize=12;startSize=8;endSize=8;" edge="1" parent="1" source="oKbmGCNmtIYVetC7zHaL-26" target="oKbmGCNmtIYVetC7zHaL-26">
          <mxGeometry relative="1" as="geometry" />
        </mxCell>
        <mxCell id="oKbmGCNmtIYVetC7zHaL-88" style="edgeStyle=none;curved=1;rounded=0;orthogonalLoop=1;jettySize=auto;html=1;exitX=0.5;exitY=1;exitDx=0;exitDy=0;fontSize=12;startSize=8;endSize=8;" edge="1" parent="1" source="oKbmGCNmtIYVetC7zHaL-25" target="oKbmGCNmtIYVetC7zHaL-25">
          <mxGeometry relative="1" as="geometry" />
        </mxCell>
        <mxCell id="oKbmGCNmtIYVetC7zHaL-89" value="" style="endArrow=none;html=1;rounded=0;fontSize=12;startSize=8;endSize=8;curved=1;" edge="1" parent="1">
          <mxGeometry width="50" height="50" relative="1" as="geometry">
            <mxPoint x="-130" y="-270" as="sourcePoint" />
            <mxPoint x="-120" y="-530" as="targetPoint" />
          </mxGeometry>
        </mxCell>
        <mxCell id="oKbmGCNmtIYVetC7zHaL-91" value="" style="endArrow=none;html=1;rounded=0;fontSize=12;startSize=8;endSize=8;curved=1;" edge="1" parent="1">
          <mxGeometry width="50" height="50" relative="1" as="geometry">
            <mxPoint x="-120" y="-530" as="sourcePoint" />
            <mxPoint x="140" y="-530" as="targetPoint" />
          </mxGeometry>
        </mxCell>
        <mxCell id="oKbmGCNmtIYVetC7zHaL-92" value="" style="endArrow=none;html=1;rounded=0;fontSize=12;startSize=8;endSize=8;curved=1;" edge="1" parent="1">
          <mxGeometry width="50" height="50" relative="1" as="geometry">
            <mxPoint x="490" y="-300" as="sourcePoint" />
            <mxPoint x="490" y="-530" as="targetPoint" />
          </mxGeometry>
        </mxCell>
        <mxCell id="oKbmGCNmtIYVetC7zHaL-93" value="" style="endArrow=none;html=1;rounded=0;fontSize=12;startSize=8;endSize=8;curved=1;" edge="1" parent="1">
          <mxGeometry width="50" height="50" relative="1" as="geometry">
            <mxPoint x="160" y="-240" as="sourcePoint" />
            <mxPoint x="160" y="-300" as="targetPoint" />
          </mxGeometry>
        </mxCell>
        <mxCell id="oKbmGCNmtIYVetC7zHaL-94" value="" style="endArrow=none;html=1;rounded=0;fontSize=12;startSize=8;endSize=8;curved=1;" edge="1" parent="1">
          <mxGeometry width="50" height="50" relative="1" as="geometry">
            <mxPoint x="160" y="-300" as="sourcePoint" />
            <mxPoint x="490" y="-300" as="targetPoint" />
          </mxGeometry>
        </mxCell>
        <mxCell id="oKbmGCNmtIYVetC7zHaL-96" value="" style="endArrow=none;html=1;rounded=0;fontSize=12;startSize=8;endSize=8;curved=1;" edge="1" parent="1" target="bxZLJlHsnHyx1dcmcsCU-280">
          <mxGeometry width="50" height="50" relative="1" as="geometry">
            <mxPoint x="110" y="-240" as="sourcePoint" />
            <mxPoint x="160" y="-290" as="targetPoint" />
          </mxGeometry>
        </mxCell>
        <mxCell id="oKbmGCNmtIYVetC7zHaL-97" value="" style="rounded=0;whiteSpace=wrap;html=1;" vertex="1" parent="1">
          <mxGeometry x="524" y="-120.38" width="120" height="60" as="geometry" />
        </mxCell>
        <mxCell id="oKbmGCNmtIYVetC7zHaL-98" value="" style="triangle;whiteSpace=wrap;html=1;" vertex="1" parent="1">
          <mxGeometry x="524" y="-84.38" width="16" height="24" as="geometry" />
        </mxCell>
        <mxCell id="oKbmGCNmtIYVetC7zHaL-99" value="Clock Divider" style="text;strokeColor=none;fillColor=none;html=1;align=center;verticalAlign=middle;whiteSpace=wrap;rounded=0;fontSize=14;" vertex="1" parent="1">
          <mxGeometry x="556.5" y="-101.88" width="55" height="23" as="geometry" />
        </mxCell>
        <mxCell id="oKbmGCNmtIYVetC7zHaL-100" value="" style="endArrow=classic;html=1;rounded=0;fontSize=12;startSize=8;endSize=8;curved=1;" edge="1" parent="1">
          <mxGeometry width="50" height="50" relative="1" as="geometry">
            <mxPoint x="470" y="-70" as="sourcePoint" />
            <mxPoint x="520" y="-70" as="targetPoint" />
          </mxGeometry>
        </mxCell>
        <mxCell id="oKbmGCNmtIYVetC7zHaL-101" value="&lt;font style=&quot;font-size: 12px;&quot;&gt;100MHz&lt;/font&gt;" style="text;strokeColor=none;fillColor=none;html=1;align=center;verticalAlign=middle;whiteSpace=wrap;rounded=0;fontSize=16;" vertex="1" parent="1">
          <mxGeometry x="460" y="-99" width="60" height="30" as="geometry" />
        </mxCell>
        <mxCell id="oKbmGCNmtIYVetC7zHaL-103" value="Inc" style="text;strokeColor=none;fillColor=none;html=1;align=center;verticalAlign=middle;whiteSpace=wrap;rounded=0;fontSize=16;" vertex="1" parent="1">
          <mxGeometry x="76" y="330" width="60" height="30" as="geometry" />
        </mxCell>
        <mxCell id="oKbmGCNmtIYVetC7zHaL-104" value="Dec" style="text;strokeColor=none;fillColor=none;html=1;align=center;verticalAlign=middle;whiteSpace=wrap;rounded=0;fontSize=16;" vertex="1" parent="1">
          <mxGeometry x="76" y="386" width="60" height="30" as="geometry" />
        </mxCell>
        <mxCell id="oKbmGCNmtIYVetC7zHaL-105" value="" style="shape=trapezoid;perimeter=trapezoidPerimeter;whiteSpace=wrap;html=1;fixedSize=1;direction=east;" vertex="1" parent="1">
          <mxGeometry x="1018" y="-483.5" width="148" height="43.5" as="geometry" />
        </mxCell>
        <mxCell id="oKbmGCNmtIYVetC7zHaL-106" value="" style="endArrow=classic;html=1;rounded=0;fontSize=12;startSize=8;endSize=8;curved=1;" edge="1" parent="1">
          <mxGeometry width="50" height="50" relative="1" as="geometry">
            <mxPoint x="980" y="-460" as="sourcePoint" />
            <mxPoint x="1030" y="-460" as="targetPoint" />
          </mxGeometry>
        </mxCell>
        <mxCell id="oKbmGCNmtIYVetC7zHaL-107" value="LS" style="text;strokeColor=none;fillColor=none;html=1;align=center;verticalAlign=middle;whiteSpace=wrap;rounded=0;fontSize=16;" vertex="1" parent="1">
          <mxGeometry x="930" y="-472.5" width="60" height="30" as="geometry" />
        </mxCell>
        <mxCell id="oKbmGCNmtIYVetC7zHaL-109" value="" style="endArrow=none;html=1;rounded=0;fontSize=12;startSize=8;endSize=8;curved=1;" edge="1" parent="1">
          <mxGeometry width="50" height="50" relative="1" as="geometry">
            <mxPoint x="1040" y="-300" as="sourcePoint" />
            <mxPoint x="1040" y="-440" as="targetPoint" />
          </mxGeometry>
        </mxCell>
        <mxCell id="oKbmGCNmtIYVetC7zHaL-110" value="" style="endArrow=none;html=1;rounded=0;fontSize=12;startSize=8;endSize=8;curved=1;" edge="1" parent="1">
          <mxGeometry width="50" height="50" relative="1" as="geometry">
            <mxPoint x="1060" y="-300" as="sourcePoint" />
            <mxPoint x="1060" y="-440" as="targetPoint" />
          </mxGeometry>
        </mxCell>
        <mxCell id="oKbmGCNmtIYVetC7zHaL-112" value="" style="endArrow=none;html=1;rounded=0;fontSize=12;startSize=8;endSize=8;curved=1;" edge="1" parent="1">
          <mxGeometry width="50" height="50" relative="1" as="geometry">
            <mxPoint x="240" y="-350" as="sourcePoint" />
            <mxPoint x="1040" y="-350" as="targetPoint" />
          </mxGeometry>
        </mxCell>
        <mxCell id="oKbmGCNmtIYVetC7zHaL-113" value="" style="endArrow=none;html=1;rounded=0;fontSize=12;startSize=8;endSize=8;curved=1;" edge="1" parent="1">
          <mxGeometry width="50" height="50" relative="1" as="geometry">
            <mxPoint x="80" y="-310" as="sourcePoint" />
            <mxPoint x="1060" y="-310" as="targetPoint" />
          </mxGeometry>
        </mxCell>
        <mxCell id="oKbmGCNmtIYVetC7zHaL-118" value="" style="endArrow=classic;html=1;rounded=0;fontSize=12;startSize=8;endSize=8;curved=1;entryX=0.647;entryY=1.044;entryDx=0;entryDy=0;entryPerimeter=0;" edge="1" parent="1" target="oKbmGCNmtIYVetC7zHaL-105">
          <mxGeometry width="50" height="50" relative="1" as="geometry">
            <mxPoint x="1120" y="10" as="sourcePoint" />
            <mxPoint x="1170" y="-40" as="targetPoint" />
          </mxGeometry>
        </mxCell>
        <mxCell id="oKbmGCNmtIYVetC7zHaL-119" value="" style="endArrow=none;html=1;rounded=0;fontSize=12;startSize=8;endSize=8;curved=1;" edge="1" parent="1">
          <mxGeometry width="50" height="50" relative="1" as="geometry">
            <mxPoint x="1110" y="-350" as="sourcePoint" />
            <mxPoint x="1120" y="-370" as="targetPoint" />
          </mxGeometry>
        </mxCell>
        <mxCell id="oKbmGCNmtIYVetC7zHaL-120" value="&lt;font style=&quot;font-size: 12px;&quot;&gt;8&lt;/font&gt;" style="text;strokeColor=none;fillColor=none;html=1;align=center;verticalAlign=middle;whiteSpace=wrap;rounded=0;fontSize=16;" vertex="1" parent="1">
          <mxGeometry x="1079.5" y="-378" width="60" height="30" as="geometry" />
        </mxCell>
        <mxCell id="oKbmGCNmtIYVetC7zHaL-128" value="&lt;font style=&quot;font-size: 12px;&quot;&gt;En&lt;/font&gt;" style="text;strokeColor=none;fillColor=none;html=1;align=center;verticalAlign=middle;whiteSpace=wrap;rounded=0;fontSize=16;" vertex="1" parent="1">
          <mxGeometry x="-210.31" y="-678" width="60" height="30" as="geometry" />
        </mxCell>
        <mxCell id="oKbmGCNmtIYVetC7zHaL-129" value="" style="endArrow=classic;html=1;rounded=0;fontSize=12;startSize=8;endSize=8;curved=1;entryX=0;entryY=1;entryDx=0;entryDy=0;" edge="1" parent="1" target="bxZLJlHsnHyx1dcmcsCU-52">
          <mxGeometry width="50" height="50" relative="1" as="geometry">
            <mxPoint x="1090" y="-490" as="sourcePoint" />
            <mxPoint x="1140" y="-540" as="targetPoint" />
          </mxGeometry>
        </mxCell>
        <mxCell id="oKbmGCNmtIYVetC7zHaL-130" value="1" style="text;strokeColor=none;fillColor=none;html=1;align=center;verticalAlign=middle;whiteSpace=wrap;rounded=0;fontSize=16;" vertex="1" parent="1">
          <mxGeometry x="1089" y="-472.5" width="60" height="30" as="geometry" />
        </mxCell>
        <mxCell id="oKbmGCNmtIYVetC7zHaL-131" value="0" style="text;strokeColor=none;fillColor=none;html=1;align=center;verticalAlign=middle;whiteSpace=wrap;rounded=0;fontSize=16;" vertex="1" parent="1">
          <mxGeometry x="1021.5" y="-469" width="60" height="30" as="geometry" />
        </mxCell>
        <mxCell id="oKbmGCNmtIYVetC7zHaL-132" value="2*1 MUX" style="text;strokeColor=none;fillColor=none;html=1;align=center;verticalAlign=middle;whiteSpace=wrap;rounded=0;fontSize=14;" vertex="1" parent="1">
          <mxGeometry x="1062" y="-493" width="60" height="30" as="geometry" />
        </mxCell>
        <mxCell id="oKbmGCNmtIYVetC7zHaL-133" value="" style="shape=trapezoid;perimeter=trapezoidPerimeter;whiteSpace=wrap;html=1;fixedSize=1;direction=north;" vertex="1" parent="1">
          <mxGeometry x="821" y="-638.5" width="26" height="77" as="geometry" />
        </mxCell>
        <mxCell id="oKbmGCNmtIYVetC7zHaL-137" value="" style="endArrow=none;html=1;rounded=0;fontSize=12;startSize=8;endSize=8;curved=1;" edge="1" parent="1">
          <mxGeometry width="50" height="50" relative="1" as="geometry">
            <mxPoint x="880" y="-630" as="sourcePoint" />
            <mxPoint x="880" y="-720" as="targetPoint" />
          </mxGeometry>
        </mxCell>
        <mxCell id="oKbmGCNmtIYVetC7zHaL-138" value="" style="endArrow=classic;html=1;rounded=0;fontSize=12;startSize=8;endSize=8;curved=1;entryX=0.884;entryY=0.965;entryDx=0;entryDy=0;entryPerimeter=0;" edge="1" parent="1" target="oKbmGCNmtIYVetC7zHaL-133">
          <mxGeometry width="50" height="50" relative="1" as="geometry">
            <mxPoint x="880" y="-630" as="sourcePoint" />
            <mxPoint x="930" y="-680" as="targetPoint" />
          </mxGeometry>
        </mxCell>
        <mxCell id="oKbmGCNmtIYVetC7zHaL-139" value="&lt;font style=&quot;font-size: 12px;&quot;&gt;1&lt;/font&gt;" style="text;strokeColor=none;fillColor=none;html=1;align=center;verticalAlign=middle;whiteSpace=wrap;rounded=0;fontSize=16;rotation=270;" vertex="1" parent="1">
          <mxGeometry x="809" y="-636.5" width="60" height="30" as="geometry" />
        </mxCell>
        <mxCell id="oKbmGCNmtIYVetC7zHaL-140" value="&lt;font style=&quot;font-size: 12px;&quot;&gt;0&lt;/font&gt;" style="text;strokeColor=none;fillColor=none;html=1;align=center;verticalAlign=middle;whiteSpace=wrap;rounded=0;fontSize=16;rotation=270;" vertex="1" parent="1">
          <mxGeometry x="804" y="-603" width="60" height="30" as="geometry" />
        </mxCell>
        <mxCell id="oKbmGCNmtIYVetC7zHaL-141" value="" style="endArrow=classic;html=1;rounded=0;fontSize=12;startSize=8;endSize=8;curved=1;" edge="1" parent="1">
          <mxGeometry width="50" height="50" relative="1" as="geometry">
            <mxPoint x="840" y="-670" as="sourcePoint" />
            <mxPoint x="840" y="-630" as="targetPoint" />
          </mxGeometry>
        </mxCell>
        <mxCell id="oKbmGCNmtIYVetC7zHaL-142" value="&lt;font style=&quot;font-size: 14px;&quot;&gt;LS&lt;/font&gt;" style="text;strokeColor=none;fillColor=none;html=1;align=center;verticalAlign=middle;whiteSpace=wrap;rounded=0;fontSize=16;" vertex="1" parent="1">
          <mxGeometry x="811" y="-693" width="60" height="30" as="geometry" />
        </mxCell>
        <mxCell id="oKbmGCNmtIYVetC7zHaL-143" value="" style="endArrow=none;html=1;rounded=0;fontSize=12;startSize=8;endSize=8;curved=1;" edge="1" parent="1">
          <mxGeometry width="50" height="50" relative="1" as="geometry">
            <mxPoint x="-70" y="-550" as="sourcePoint" />
            <mxPoint x="900" y="-550" as="targetPoint" />
          </mxGeometry>
        </mxCell>
        <mxCell id="oKbmGCNmtIYVetC7zHaL-144" value="" style="endArrow=none;html=1;rounded=0;fontSize=12;startSize=8;endSize=8;curved=1;" edge="1" parent="1">
          <mxGeometry width="50" height="50" relative="1" as="geometry">
            <mxPoint x="900" y="-550" as="sourcePoint" />
            <mxPoint x="900" y="-590" as="targetPoint" />
          </mxGeometry>
        </mxCell>
        <mxCell id="oKbmGCNmtIYVetC7zHaL-145" value="" style="endArrow=classic;html=1;rounded=0;fontSize=12;startSize=8;endSize=8;curved=1;" edge="1" parent="1" target="oKbmGCNmtIYVetC7zHaL-140">
          <mxGeometry width="50" height="50" relative="1" as="geometry">
            <mxPoint x="900" y="-590" as="sourcePoint" />
            <mxPoint x="950" y="-640" as="targetPoint" />
          </mxGeometry>
        </mxCell>
        <mxCell id="oKbmGCNmtIYVetC7zHaL-146" value="" style="endArrow=none;html=1;rounded=0;fontSize=12;startSize=8;endSize=8;curved=1;" edge="1" parent="1">
          <mxGeometry width="50" height="50" relative="1" as="geometry">
            <mxPoint x="-90" y="-560" as="sourcePoint" />
            <mxPoint x="880" y="-560" as="targetPoint" />
          </mxGeometry>
        </mxCell>
        <mxCell id="oKbmGCNmtIYVetC7zHaL-147" value="" style="endArrow=none;html=1;rounded=0;fontSize=12;startSize=8;endSize=8;curved=1;" edge="1" parent="1">
          <mxGeometry width="50" height="50" relative="1" as="geometry">
            <mxPoint x="880" y="-560" as="sourcePoint" />
            <mxPoint x="880" y="-580" as="targetPoint" />
          </mxGeometry>
        </mxCell>
        <mxCell id="oKbmGCNmtIYVetC7zHaL-148" value="" style="endArrow=classic;html=1;rounded=0;fontSize=12;startSize=8;endSize=8;curved=1;entryX=0.364;entryY=1.103;entryDx=0;entryDy=0;entryPerimeter=0;" edge="1" parent="1" target="oKbmGCNmtIYVetC7zHaL-140">
          <mxGeometry width="50" height="50" relative="1" as="geometry">
            <mxPoint x="880" y="-580" as="sourcePoint" />
            <mxPoint x="930" y="-630" as="targetPoint" />
          </mxGeometry>
        </mxCell>
        <mxCell id="oKbmGCNmtIYVetC7zHaL-156" value="" style="endArrow=none;html=1;rounded=0;fontSize=12;startSize=8;endSize=8;curved=1;" edge="1" parent="1">
          <mxGeometry width="50" height="50" relative="1" as="geometry">
            <mxPoint x="1110" y="-380" as="sourcePoint" />
            <mxPoint x="1170" y="-380" as="targetPoint" />
          </mxGeometry>
        </mxCell>
        <mxCell id="oKbmGCNmtIYVetC7zHaL-157" value="" style="endArrow=none;html=1;rounded=0;fontSize=12;startSize=8;endSize=8;curved=1;" edge="1" parent="1">
          <mxGeometry width="50" height="50" relative="1" as="geometry">
            <mxPoint x="200" y="-130" as="sourcePoint" />
            <mxPoint x="220" y="-150" as="targetPoint" />
          </mxGeometry>
        </mxCell>
        <mxCell id="oKbmGCNmtIYVetC7zHaL-158" value="&lt;font style=&quot;font-size: 12px;&quot;&gt;4&lt;/font&gt;" style="text;strokeColor=none;fillColor=none;html=1;align=center;verticalAlign=middle;whiteSpace=wrap;rounded=0;fontSize=16;" vertex="1" parent="1">
          <mxGeometry x="173" y="-160" width="60" height="30" as="geometry" />
        </mxCell>
        <mxCell id="oKbmGCNmtIYVetC7zHaL-159" value="" style="endArrow=none;html=1;rounded=0;fontSize=12;startSize=8;endSize=8;curved=1;" edge="1" parent="1">
          <mxGeometry width="50" height="50" relative="1" as="geometry">
            <mxPoint x="100" y="-130" as="sourcePoint" />
            <mxPoint x="120" y="-140" as="targetPoint" />
          </mxGeometry>
        </mxCell>
        <mxCell id="oKbmGCNmtIYVetC7zHaL-160" value="&lt;font style=&quot;font-size: 12px;&quot;&gt;4&lt;/font&gt;" style="text;strokeColor=none;fillColor=none;html=1;align=center;verticalAlign=middle;whiteSpace=wrap;rounded=0;fontSize=16;" vertex="1" parent="1">
          <mxGeometry x="75.94" y="-160" width="60" height="30" as="geometry" />
        </mxCell>
        <mxCell id="oKbmGCNmtIYVetC7zHaL-161" value="" style="endArrow=none;html=1;rounded=0;fontSize=12;startSize=8;endSize=8;curved=1;" edge="1" parent="1">
          <mxGeometry width="50" height="50" relative="1" as="geometry">
            <mxPoint x="-90" y="-140" as="sourcePoint" />
            <mxPoint x="-70" y="-160" as="targetPoint" />
          </mxGeometry>
        </mxCell>
        <mxCell id="oKbmGCNmtIYVetC7zHaL-162" value="&lt;font style=&quot;font-size: 12px;&quot;&gt;4&lt;/font&gt;" style="text;strokeColor=none;fillColor=none;html=1;align=center;verticalAlign=middle;whiteSpace=wrap;rounded=0;fontSize=16;" vertex="1" parent="1">
          <mxGeometry x="-116.06" y="-169.63" width="60" height="30" as="geometry" />
        </mxCell>
        <mxCell id="oKbmGCNmtIYVetC7zHaL-163" value="" style="endArrow=none;html=1;rounded=0;fontSize=12;startSize=8;endSize=8;curved=1;" edge="1" parent="1">
          <mxGeometry width="50" height="50" relative="1" as="geometry">
            <mxPoint x="10" y="-150" as="sourcePoint" />
            <mxPoint x="30" y="-170" as="targetPoint" />
          </mxGeometry>
        </mxCell>
        <mxCell id="oKbmGCNmtIYVetC7zHaL-164" value="&lt;font style=&quot;font-size: 12px;&quot;&gt;4&lt;/font&gt;" style="text;strokeColor=none;fillColor=none;html=1;align=center;verticalAlign=middle;whiteSpace=wrap;rounded=0;fontSize=16;" vertex="1" parent="1">
          <mxGeometry x="-19.560000000000002" y="-176.88" width="60" height="30" as="geometry" />
        </mxCell>
        <mxCell id="oKbmGCNmtIYVetC7zHaL-165" value="&lt;font style=&quot;font-size: 12px;&quot;&gt;En&lt;/font&gt;" style="text;strokeColor=none;fillColor=none;html=1;align=center;verticalAlign=middle;whiteSpace=wrap;rounded=0;fontSize=16;" vertex="1" parent="1">
          <mxGeometry x="830" y="-109.13" width="60" height="30" as="geometry" />
        </mxCell>
        <mxCell id="oKbmGCNmtIYVetC7zHaL-166" value="" style="endArrow=classic;html=1;rounded=0;fontSize=12;startSize=8;endSize=8;curved=1;entryX=0.667;entryY=0.638;entryDx=0;entryDy=0;entryPerimeter=0;" edge="1" parent="1" target="oKbmGCNmtIYVetC7zHaL-165">
          <mxGeometry width="50" height="50" relative="1" as="geometry">
            <mxPoint x="930" y="-90" as="sourcePoint" />
            <mxPoint x="980" y="-140" as="targetPoint" />
          </mxGeometry>
        </mxCell>
        <mxCell id="oKbmGCNmtIYVetC7zHaL-167" value="&lt;font style=&quot;font-size: 14px;&quot;&gt;LS&lt;/font&gt;" style="text;strokeColor=none;fillColor=none;html=1;align=center;verticalAlign=middle;whiteSpace=wrap;rounded=0;fontSize=16;" vertex="1" parent="1">
          <mxGeometry x="913" y="-105.38" width="60" height="30" as="geometry" />
        </mxCell>
      </root>
    </mxGraphModel>
  </diagram>
</mxfile>
